<?xml version="1.0" encoding="UTF-8"?>
<svg id="Layer_1" xmlns="http://www.w3.org/2000/svg" version="1.1" viewBox="0 0 628.26 594.46">
  <!-- Generator: Adobe Illustrator 29.3.1, SVG Export Plug-In . SVG Version: 2.1.0 Build 151)  -->
  <defs>
    <style>
      .st0 {
        fill: #171642;
      }
    </style>
  </defs>
  <path class="st0" d="M319.64,107.12c-38.75,0-74.66,12.17-104.12,32.92l4.4,6c10.01-7.04,20.75-13,32.12-17.81,21.4-9.06,44.15-13.65,67.6-13.65s46.19,4.59,67.6,13.65c20.68,8.75,39.26,21.28,55.21,37.24,15.95,15.96,28.47,34.55,37.22,55.24,9.05,21.42,13.64,44.17,13.64,67.63,0,12.59-1.32,24.97-3.95,37.05l7.24,1.74c2.72-12.5,4.16-25.48,4.16-38.8,0-100.08-81.09-181.22-181.12-181.22Z"/>
  <path class="st0" d="M154.11,215.27h-46.97v-11.12l31.42-32.75-3.13-3.44c-2.02,1.82-3.96,3.1-5.81,3.84-1.85.74-4.26,1.11-7.22,1.11h-14.55v-11.22h45.46v11.12l-31.42,32.75,3.03,3.44c1.95-1.82,3.91-3.1,5.86-3.84,1.95-.74,4.45-1.11,7.48-1.11h15.86v11.22h0Z"/>
  <path class="st0" d="M159.27,188.59c0-8.55,2.54-15.48,7.63-20.77,5.09-5.29,11.9-7.94,20.46-7.94s14.92,2.56,19.9,7.68c4.98,5.12,7.47,12.1,7.47,20.92v4.35h-42.03c.27,4.05,1.78,7.28,4.55,9.7,2.76,2.43,6.36,3.64,10.81,3.64,3.64,0,6.89-.81,9.75-2.43,2.86-1.62,5.1-3.87,6.72-6.77l7.78,8.49c-2.23,3.64-5.59,6.49-10.1,8.54-4.52,2.06-9.36,3.08-14.55,3.08-8.42,0-15.26-2.58-20.51-7.73-5.25-5.15-7.88-12.08-7.88-20.77h0ZM201.49,183.54c-.27-3.97-1.67-7.14-4.19-9.5-2.53-2.36-5.91-3.54-10.15-3.54s-7.38,1.15-10,3.44c-2.62,2.29-4.07,5.49-4.34,9.6h28.69Z"/>
  <path class="st0" d="M236.85,215.27h-13.54v-53.57h11.92v.61c-.27,2.02-1.04,4.72-2.32,8.09l4.45,1.42c2.76-7.41,6.87-11.12,12.33-11.12,2.15,0,3.71.27,4.65.81l.91,12.13c-1.62-.61-3.88-.91-6.77-.91-2.56,0-4.94.78-7.12,2.32-2.19,1.55-3.69,3.74-4.49,6.57v33.66h0Z"/>
  <path class="st0" d="M259.08,188.39c0-8.49,2.62-15.36,7.88-20.62,5.26-5.25,12.09-7.88,20.51-7.88s15.25,2.63,20.51,7.88c5.25,5.25,7.88,12.13,7.88,20.62s-2.62,15.47-7.88,20.72c-5.26,5.26-12.09,7.88-20.51,7.88s-15.34-2.63-20.56-7.88c-5.22-5.25-7.83-12.16-7.83-20.72ZM302.21,188.39c0-5.25-1.31-9.42-3.94-12.49-2.62-3.06-6.23-4.6-10.81-4.6s-8.2,1.53-10.86,4.6c-2.66,3.07-3.99,7.23-3.99,12.49s1.33,9.52,3.99,12.59c2.66,3.07,6.28,4.6,10.86,4.6s8.18-1.53,10.81-4.6c2.63-3.06,3.94-7.26,3.94-12.59Z"/>
  <path class="st0" d="M107.24,287.37c0-8.49,2.62-15.36,7.88-20.62,5.26-5.25,12.09-7.88,20.51-7.88s15.25,2.63,20.51,7.88c5.25,5.25,7.88,12.13,7.88,20.62s-2.62,15.47-7.88,20.72c-5.26,5.26-12.09,7.88-20.51,7.88s-15.34-2.63-20.56-7.88c-5.22-5.26-7.83-12.16-7.83-20.72ZM150.38,287.37c0-5.25-1.31-9.42-3.94-12.49-2.62-3.06-6.23-4.6-10.81-4.6s-8.2,1.53-10.86,4.6c-2.66,3.07-3.99,7.23-3.99,12.49s1.33,9.52,3.99,12.59c2.66,3.07,6.28,4.6,10.86,4.6s8.18-1.53,10.81-4.6c2.63-3.06,3.94-7.26,3.94-12.59Z"/>
  <path class="st0" d="M173.1,314.26v-53.57h12.12v.51c-.34,2.9-1.01,5.76-2.02,8.59l4.14,1.72c1.89-4.11,4.5-7.24,7.83-9.4,3.34-2.16,7.12-3.23,11.37-3.23,6.13,0,10.96,2.07,14.5,6.21,3.53,4.15,5.3,10.16,5.3,18.04v31.13h-13.43v-28.2c0-10.11-3.84-15.16-11.52-15.16-3.17,0-6.04.84-8.64,2.53-2.59,1.69-4.63,4.01-6.11,6.97v33.86h-13.54Z"/>
  <path class="st0" d="M235.14,287.57c0-8.55,2.54-15.48,7.63-20.77,5.09-5.29,11.9-7.94,20.46-7.94s14.92,2.56,19.9,7.68c4.98,5.12,7.47,12.1,7.47,20.92v4.35h-42.03c.27,4.04,1.78,7.28,4.55,9.7,2.76,2.43,6.36,3.64,10.81,3.64,3.64,0,6.89-.81,9.75-2.42,2.86-1.62,5.1-3.87,6.72-6.77l7.78,8.49c-2.23,3.64-5.59,6.49-10.1,8.54-4.52,2.06-9.36,3.09-14.55,3.09-8.42,0-15.26-2.58-20.51-7.73-5.25-5.15-7.88-12.08-7.88-20.77ZM277.36,282.52c-.27-3.97-1.67-7.14-4.19-9.5-2.53-2.36-5.91-3.54-10.15-3.54s-7.38,1.15-10,3.44c-2.62,2.29-4.07,5.49-4.34,9.6h28.69Z"/>
  <path class="st0" d="M123.1,412.3h-13.54v-73.78h13.54v14.55c0,1.82-.14,3.55-.4,5.2-.27,1.65-.54,2.88-.81,3.69-.27.81-.67,1.91-1.21,3.29-.54,1.38-.88,2.24-1.01,2.58l4.14,1.72c1.89-4.11,4.5-7.25,7.83-9.4,3.34-2.16,7.12-3.23,11.37-3.23,6.13,0,10.96,2.07,14.5,6.22,3.53,4.14,5.3,10.16,5.3,18.04v31.13h-13.43v-28.2c0-10.11-3.84-15.16-11.52-15.16-3.17,0-6.04.84-8.64,2.53-2.59,1.69-4.63,4.01-6.11,6.97v33.86h0Z"/>
  <path class="st0" d="M226.75,412.31h-12.83v-.5c.27-2.56,1.01-5.43,2.22-8.59l-4.24-1.42c-1.55,3.91-4.03,6.94-7.42,9.1-3.4,2.16-7.29,3.23-11.67,3.23-6,0-10.71-1.92-14.14-5.76-3.43-3.84-5.15-9.33-5.15-16.48v-33.16h13.43v30.63c0,4.11,1.03,7.26,3.08,9.45,2.05,2.19,5,3.29,8.84,3.29,6.73,0,11.51-3.1,14.34-9.3v-34.07h13.54v53.58Z"/>
  <path class="st0" d="M238.27,412.3v-53.57h12.12v.51c-.34,2.9-1.01,5.76-2.02,8.59l4.14,1.72c1.89-4.11,4.5-7.25,7.83-9.4,3.34-2.16,7.12-3.23,11.37-3.23,6.13,0,10.96,2.07,14.5,6.22,3.53,4.14,5.3,10.16,5.3,18.04v31.13h-13.43v-28.2c0-10.11-3.84-15.16-11.52-15.16-3.17,0-6.04.85-8.64,2.53-2.59,1.69-4.63,4.01-6.11,6.97v33.86h-13.54Z"/>
  <path class="st0" d="M324.24,414.02c-7.07,0-12.83-2.64-17.28-7.93-4.45-5.29-6.67-12.15-6.67-20.57s2.27-15.45,6.82-20.67c4.55-5.22,10.35-7.84,17.42-7.84,8.49,0,14.52,3.6,18.09,10.81l4.14-2.62c-2.69-4.51-4.04-9.9-4.04-16.18v-10.51h13.44v73.78h-11.32v-.5c.34-1.35,1.18-3.74,2.53-7.18l-4.14-2.12c-1.55,3.71-4.04,6.55-7.48,8.54-3.43,1.98-7.28,2.98-11.51,2.98h0ZM328.68,402.7c3.37,0,6.31-.83,8.84-2.48,2.53-1.65,4.26-3.96,5.2-6.92v-15.57c-.94-2.83-2.64-5.11-5.1-6.82-2.46-1.72-5.41-2.58-8.84-2.58-4.38,0-7.93,1.48-10.66,4.45-2.73,2.97-4.09,7.21-4.09,12.74s1.31,9.6,3.94,12.63c2.63,3.03,6.2,4.55,10.71,4.55h0Z"/>
  <path class="st0" d="M381.31,412.3h-13.54v-53.57h11.92v.61c-.27,2.02-1.04,4.71-2.32,8.09l4.44,1.41c2.76-7.41,6.87-11.12,12.33-11.12,2.16,0,3.71.27,4.65.81l.91,12.13c-1.62-.6-3.88-.91-6.77-.91-2.56,0-4.94.78-7.12,2.32-2.19,1.55-3.69,3.74-4.49,6.57v33.66h0Z"/>
  <path class="st0" d="M403.54,385.62c0-8.56,2.54-15.48,7.62-20.77,5.09-5.29,11.9-7.93,20.46-7.93s14.92,2.56,19.9,7.68c4.98,5.12,7.47,12.09,7.47,20.92v4.35h-42.03c.27,4.05,1.78,7.28,4.55,9.7,2.76,2.43,6.36,3.64,10.81,3.64,3.63,0,6.88-.81,9.75-2.42,2.86-1.62,5.1-3.87,6.72-6.77l7.78,8.49c-2.22,3.64-5.59,6.49-10.1,8.54-4.52,2.06-9.37,3.09-14.55,3.09-8.42,0-15.26-2.58-20.51-7.73-5.25-5.15-7.88-12.08-7.88-20.77h0ZM445.77,380.57c-.27-3.97-1.67-7.14-4.19-9.5-2.53-2.36-5.91-3.54-10.15-3.54s-7.38,1.15-10.01,3.44c-2.62,2.29-4.07,5.49-4.34,9.6h28.69Z"/>
  <path class="st0" d="M489.21,414.02c-7.07,0-12.83-2.64-17.28-7.93-4.45-5.29-6.67-12.15-6.67-20.57s2.27-15.45,6.82-20.67c4.55-5.22,10.35-7.84,17.42-7.84,8.49,0,14.52,3.6,18.08,10.81l4.14-2.62c-2.69-4.51-4.04-9.9-4.04-16.18v-10.51h13.44v73.78h-11.32v-.5c.34-1.35,1.18-3.74,2.53-7.18l-4.14-2.12c-1.55,3.71-4.04,6.55-7.48,8.54-3.43,1.98-7.27,2.98-11.52,2.98h0ZM493.65,402.7c3.37,0,6.31-.83,8.84-2.48,2.53-1.65,4.26-3.96,5.2-6.92v-15.57c-.94-2.83-2.64-5.11-5.1-6.82-2.46-1.72-5.4-2.58-8.84-2.58-4.38,0-7.93,1.48-10.66,4.45-2.73,2.97-4.09,7.21-4.09,12.74s1.32,9.6,3.94,12.63c2.63,3.03,6.2,4.55,10.71,4.55h0Z"/>
  <path class="st0" d="M173.51,471.77c0-4.83,1.46-8.7,4.37-11.62,2.92-2.91,6.81-4.37,11.67-4.37,3.78,0,6.92.9,9.41,2.7,2.49,1.8,4.14,4.26,4.95,7.38l-7.91,2.4c-.41-1.78-1.22-3.14-2.45-4.07-1.22-.93-2.73-1.39-4.51-1.39-2.23,0-3.96.79-5.18,2.37-1.23,1.58-1.84,3.71-1.84,6.38s.65,4.89,1.95,6.44c1.3,1.54,3.02,2.31,5.18,2.31,1.82,0,3.32-.49,4.51-1.48,1.19-.98,1.98-2.31,2.4-3.98l7.91,2.4c-.78,3.05-2.54,5.49-5.29,7.33-2.75,1.84-6,2.76-9.75,2.76-4.68,0-8.42-1.41-11.22-4.24-2.8-2.82-4.21-6.59-4.21-11.31h0Z"/>
  <path class="st0" d="M211.13,482.97c-2.92-2.9-4.37-6.7-4.37-11.42s1.46-8.53,4.37-11.42c2.92-2.9,6.73-4.35,11.45-4.35s8.53,1.45,11.44,4.35c2.92,2.9,4.37,6.7,4.37,11.42s-1.46,8.52-4.37,11.42c-2.92,2.9-6.73,4.35-11.44,4.35s-8.53-1.45-11.45-4.35ZM229.87,471.54c0-2.71-.64-4.85-1.92-6.41-1.28-1.56-3.07-2.34-5.37-2.34s-4.1.78-5.38,2.34c-1.28,1.56-1.92,3.7-1.92,6.41s.64,4.79,1.92,6.35c1.28,1.56,3.07,2.34,5.38,2.34s4.1-.78,5.37-2.34c1.28-1.56,1.92-3.68,1.92-6.35Z"/>
  <path class="st0" d="M243.08,456.77h7.52v.22c-.15,1.04-.56,2.51-1.23,4.4l2.56,1.06c2.15-4.46,5.61-6.69,10.36-6.69,3.38,0,6.04,1.11,7.99,3.34,1.95,2.23,2.93,5.52,2.93,9.86v17.33h-8.47v-15.44c0-5.05-1.91-7.58-5.74-7.58-3.27,0-5.76,1.45-7.46,4.35v18.67h-8.47v-29.54Z"/>
  <path class="st0" d="M282.46,463.74h-5.68v-6.97h5.68v-2.4c0-6.21,3.64-9.31,10.91-9.31,1.67,0,3.03.13,4.06.39l1.06,6.85c-.89-.22-1.93-.33-3.12-.33-1.63,0-2.79.22-3.46.67-.67.44-1,1.36-1,2.73v1.39h8.24v6.97h-8.24v22.57h-8.47v-22.57h0Z"/>
  <path class="st0" d="M300.67,471.6c0-4.72,1.44-8.54,4.32-11.46,2.88-2.91,6.69-4.37,11.44-4.37s8.35,1.4,11.11,4.21c2.77,2.8,4.15,6.66,4.15,11.56v2.67h-22.56c.19,1.93.96,3.46,2.31,4.6,1.36,1.13,3.14,1.7,5.38,1.7,3.94,0,6.79-1.52,8.58-4.57l4.79,5.41c-1.27,1.86-3.14,3.32-5.63,4.37-2.49,1.06-5.14,1.58-7.96,1.58-4.72,0-8.55-1.42-11.5-4.26-2.95-2.84-4.43-6.66-4.43-11.45h0ZM309.19,468.48h14.26c-.19-1.89-.9-3.4-2.15-4.51-1.24-1.11-2.9-1.67-4.98-1.67s-3.66.55-4.95,1.64c-1.3,1.09-2.03,2.61-2.17,4.54h0Z"/>
  <path class="st0" d="M344.51,486.31h-8.47v-29.54h7.41v.28c-.19.96-.63,2.38-1.34,4.24l2.67.84c1.41-3.94,3.53-5.91,6.35-5.91,1.23,0,2.07.15,2.56.45l.61,7.53c-.93-.37-2.21-.56-3.84-.56-1.26,0-2.46.37-3.59,1.11-1.13.75-1.92,1.8-2.36,3.18v18.39h0Z"/>
  <path class="st0" d="M356.14,471.6c0-4.72,1.44-8.54,4.32-11.46,2.88-2.91,6.69-4.37,11.44-4.37s8.35,1.4,11.11,4.21c2.77,2.8,4.15,6.66,4.15,11.56v2.67h-22.56c.19,1.93.96,3.46,2.31,4.6,1.36,1.13,3.14,1.7,5.38,1.7,3.94,0,6.79-1.52,8.58-4.57l4.79,5.41c-1.26,1.86-3.14,3.32-5.63,4.37-2.49,1.06-5.14,1.58-7.96,1.58-4.72,0-8.55-1.42-11.5-4.26-2.95-2.84-4.43-6.66-4.43-11.45h0ZM364.67,468.48h14.26c-.19-1.89-.9-3.4-2.15-4.51-1.24-1.11-2.9-1.67-4.98-1.67s-3.66.55-4.95,1.64c-1.3,1.09-2.03,2.61-2.17,4.54h0Z"/>
  <path class="st0" d="M391.52,456.77h7.52v.22c-.15,1.04-.56,2.51-1.23,4.4l2.56,1.06c2.16-4.46,5.61-6.69,10.36-6.69,3.38,0,6.04,1.11,7.99,3.34,1.95,2.23,2.93,5.52,2.93,9.86v17.33h-8.47v-15.44c0-5.05-1.91-7.58-5.74-7.58-3.27,0-5.76,1.45-7.46,4.35v18.67h-8.47v-29.54Z"/>
  <path class="st0" d="M426.05,471.77c0-4.83,1.46-8.7,4.37-11.62,2.92-2.91,6.81-4.37,11.67-4.37,3.78,0,6.92.9,9.41,2.7,2.49,1.8,4.14,4.26,4.95,7.38l-7.91,2.4c-.41-1.78-1.22-3.14-2.45-4.07-1.22-.93-2.73-1.39-4.51-1.39-2.23,0-3.96.79-5.18,2.37-1.23,1.58-1.84,3.71-1.84,6.38s.65,4.89,1.95,6.44c1.3,1.54,3.02,2.31,5.18,2.31,1.82,0,3.33-.49,4.51-1.48,1.19-.98,1.98-2.31,2.39-3.98l7.91,2.4c-.78,3.05-2.55,5.49-5.29,7.33-2.75,1.84-6,2.76-9.75,2.76-4.68,0-8.42-1.41-11.22-4.24-2.8-2.82-4.21-6.59-4.21-11.31h0Z"/>
  <path class="st0" d="M459.3,471.6c0-4.72,1.44-8.54,4.32-11.46,2.88-2.91,6.69-4.37,11.44-4.37s8.35,1.4,11.11,4.21c2.77,2.8,4.15,6.66,4.15,11.56v2.67h-22.56c.19,1.93.96,3.46,2.31,4.6,1.36,1.13,3.15,1.7,5.38,1.7,3.94,0,6.79-1.52,8.57-4.57l4.79,5.41c-1.27,1.86-3.14,3.32-5.63,4.37-2.49,1.06-5.14,1.58-7.96,1.58-4.72,0-8.55-1.42-11.5-4.26-2.95-2.84-4.43-6.66-4.43-11.45h0ZM467.82,468.48h14.26c-.19-1.89-.9-3.4-2.15-4.51-1.24-1.11-2.9-1.67-4.98-1.67s-3.66.55-4.95,1.64c-1.3,1.09-2.03,2.61-2.17,4.54h0Z"/>
  <path class="st0" d="M493.06,478.06l6.96-2.45c.86,3.57,3.43,5.35,7.74,5.35,3.23,0,4.84-1,4.84-3.01,0-.37-.05-.7-.17-1-.11-.3-.32-.55-.61-.75-.3-.2-.59-.38-.86-.53-.28-.15-.68-.29-1.22-.42-.54-.13-.99-.22-1.37-.28-.37-.06-.92-.15-1.64-.28-.72-.13-1.29-.23-1.7-.31-1.52-.3-2.84-.63-3.96-1-1.11-.37-2.25-.9-3.4-1.59-1.15-.69-2.03-1.58-2.65-2.7-.61-1.11-.92-2.42-.92-3.9,0-2.97,1.19-5.29,3.57-6.94,2.38-1.65,5.55-2.48,9.53-2.48s6.97.77,9.44,2.31c2.47,1.54,3.96,3.62,4.48,6.21l-6.63,2.17c-1.08-2.93-3.62-4.4-7.63-4.4-2.93,0-4.4.87-4.4,2.62,0,.33.06.64.2.92.13.28.35.53.67.75.31.22.62.4.92.53.3.13.75.27,1.34.42.59.15,1.09.26,1.48.33.39.07,1,.19,1.81.33.81.15,1.45.26,1.9.33,1.59.3,2.95.63,4.07,1,1.11.37,2.18.88,3.2,1.53,1.02.65,1.79,1.5,2.31,2.56.52,1.06.78,2.33.78,3.82,0,3.27-1.21,5.77-3.62,7.49-2.41,1.73-5.85,2.59-10.31,2.59-8.36,0-13.07-3.08-14.15-9.25h0Z"/>
</svg>