<?xml version="1.0" encoding="utf-8"?>
<!DOCTYPE svg PUBLIC "-//W3C//DTD SVG 20010904//EN" "http://www.w3.org/TR/2001/REC-SVG-20010904/DTD/svg10.dtd">
<svg version="1.0" xmlns="http://www.w3.org/2000/svg" width="2002pt" height="646pt" viewBox="0 0 2002 646" preserveAspectRatio="xMidYMid meet">
<g fill="#FED200FF">
<path d="M 248.00 324.50 L 248.00 124.00 L 448.50 124.00 L 649.00 124.00 L 649.00 324.50 L 649.00 525.00 L 448.50 525.00 L 248.00 525.00 L 248.00 324.50ZM 371.00 395.00 L 371.00 340.00 L 393.38 340.00 L 415.75 340.00 L 415.84 360.17 C 415.93 381.79 416.67 387.55 420.73 398.50 C 427.97 418.02 442.59 433.86 461.38 442.54 C 474.25 448.49 478.79 449.42 495.00 449.45 C 508.31 449.48 510.22 449.24 518.33 446.60 C 545.21 437.82 565.53 415.85 572.07 388.50 C 574.88 376.71 573.82 357.01 569.75 345.50 C 562.25 324.33 546.09 306.89 526.23 298.55 C 513.15 293.06 506.23 292.00 483.38 292.00 L 463.00 292.00 L 463.00 269.50 L 463.00 247.00 L 518.50 247.00 L 574.00 247.00 L 574.00 223.00 L 574.00 199.00 L 448.50 199.00 L 323.00 199.00 L 323.00 324.50 L 323.00 450.00 L 347.00 450.00 L 371.00 450.00 L 371.00 395.00ZM 482.00 399.43 C 475.76 396.53 471.85 393.18 468.37 387.75 C 464.23 381.27 463.00 374.08 463.00 356.29 L 463.00 340.00 L 481.96 340.00 C 504.36 340.00 508.99 341.15 516.39 348.55 C 523.31 355.47 525.50 360.87 525.50 371.00 C 525.50 380.95 523.20 386.80 516.74 393.26 C 507.81 402.19 493.45 404.74 482.00 399.43ZM 371.00 269.52 L 371.00 247.00 L 393.49 247.00 L 415.99 247.00 L 415.74 269.25 L 415.50 291.50 L 393.25 291.77 L 371.00 292.04 L 371.00 269.52Z"/></g>
<g fill="#000000FF">
<path d="M 324.00 325.00 L 324.00 200.00 L 448.50 200.00 L 573.00 200.00 L 573.00 223.00 L 573.00 246.00 L 518.00 246.00 L 463.00 246.00 L 463.00 269.50 L 463.00 293.00 L 484.75 293.02 C 502.75 293.03 507.75 293.36 513.72 294.91 C 549.05 304.09 573.00 334.83 573.00 371.00 C 573.00 384.07 570.74 393.75 564.82 405.98 C 560.29 415.33 558.71 417.47 550.12 425.98 C 539.66 436.34 531.50 441.52 519.50 445.45 C 481.49 457.90 440.22 439.90 423.43 403.56 C 417.76 391.29 416.04 379.38 416.01 352.25 L 416.00 339.00 L 393.00 339.00 L 370.00 339.00 L 370.00 394.50 L 370.00 450.00 L 347.00 450.00 L 324.00 450.00 L 324.00 325.00ZM 504.57 401.52 C 512.44 399.14 518.94 393.52 523.00 385.56 C 526.10 379.48 526.50 377.82 526.48 371.09 C 526.46 358.43 520.19 348.28 508.69 342.25 C 503.62 339.60 503.01 339.53 483.25 339.18 L 463.00 338.82 L 463.00 357.23 C 463.00 378.06 463.99 383.21 469.32 390.20 C 477.59 401.04 491.40 405.48 504.57 401.52ZM 416.22 291.75 C 416.46 291.06 416.59 280.60 416.52 268.50 L 416.39 246.50 L 393.19 246.23 L 370.00 245.96 L 370.00 268.81 C 370.00 281.38 370.30 291.97 370.67 292.33 C 371.03 292.70 381.34 293.00 393.56 293.00 C 410.44 293.00 415.89 292.70 416.22 291.75Z"/></g>
<g fill="#000000FF">
<path d="M 1542.00 324.44 L 1542.00 260.88 L 1575.75 261.20 C 1608.20 261.52 1609.72 261.62 1615.20 263.82 C 1623.18 267.02 1630.22 273.68 1634.22 281.79 C 1637.23 287.91 1637.50 289.23 1637.50 297.98 C 1637.50 308.33 1635.81 313.27 1630.16 319.38 C 1628.16 321.55 1627.84 322.39 1628.89 322.76 C 1631.55 323.72 1638.16 330.38 1639.95 333.93 C 1648.83 351.44 1641.01 375.18 1623.66 383.37 C 1615.15 387.39 1608.69 388.00 1574.32 388.00 L 1542.00 388.00 L 1542.00 324.44ZM 1608.08 356.23 C 1612.02 351.82 1612.16 345.53 1608.41 341.08 L 1605.82 338.00 L 1590.41 338.00 L 1575.00 338.00 L 1575.00 348.33 C 1575.00 354.02 1575.33 359.00 1575.74 359.40 C 1576.14 359.81 1582.93 360.00 1590.82 359.82 L 1605.17 359.50 L 1608.08 356.23ZM 1603.08 308.08 C 1605.34 305.81 1606.00 304.24 1606.00 301.12 C 1606.00 291.26 1602.38 289.00 1586.60 289.00 L 1575.00 289.00 L 1575.00 300.00 L 1575.00 311.00 L 1587.58 311.00 C 1600.14 311.00 1600.16 311.00 1603.08 308.08Z"/></g>
<g fill="#000000FF">
<path d="M 1396.00 388.69 C 1396.00 388.51 1400.64 378.50 1406.32 366.44 C 1411.99 354.37 1417.57 342.48 1418.72 340.00 C 1419.88 337.52 1423.61 329.65 1427.03 322.50 C 1430.44 315.35 1434.48 306.80 1436.01 303.50 C 1437.54 300.20 1441.36 292.10 1444.50 285.50 C 1447.65 278.90 1451.50 270.69 1453.07 267.25 L 1455.92 261.00 L 1463.50 261.00 L 1471.08 261.00 L 1473.92 267.25 C 1475.48 270.69 1478.55 277.32 1480.74 282.00 C 1482.93 286.68 1486.14 293.54 1487.88 297.25 C 1489.62 300.97 1494.86 312.15 1499.52 322.10 C 1504.18 332.06 1508.00 340.32 1508.00 340.47 C 1508.00 340.61 1511.38 347.78 1515.50 356.40 C 1519.62 365.02 1523.00 372.26 1523.00 372.50 C 1523.00 372.74 1524.77 376.55 1526.92 380.97 L 1530.85 389.00 L 1512.89 389.00 L 1494.92 389.00 L 1491.32 381.00 L 1487.71 373.00 L 1463.40 373.00 L 1439.08 373.00 L 1435.38 381.00 L 1431.68 389.00 L 1413.84 389.00 C 1404.03 389.00 1396.00 388.86 1396.00 388.69ZM 1475.06 341.25 C 1469.14 326.51 1464.23 315.58 1463.42 315.32 C 1462.70 315.10 1454.38 333.65 1450.44 344.25 C 1449.84 345.86 1450.85 346.00 1463.38 346.00 L 1476.97 346.00 L 1475.06 341.25Z"/></g>
<g fill="#000000FF">
<path d="M 971.93 384.75 C 972.96 382.41 976.59 374.65 980.01 367.50 C 983.43 360.35 987.48 351.80 989.01 348.50 C 990.53 345.20 993.91 338.00 996.51 332.50 C 1003.04 318.68 1008.72 306.61 1012.02 299.50 C 1013.55 296.20 1018.22 286.30 1022.39 277.50 L 1029.97 261.50 L 1037.52 261.21 L 1045.08 260.91 L 1049.64 270.71 C 1052.15 276.09 1055.46 283.20 1056.98 286.50 C 1060.23 293.53 1071.94 318.59 1078.01 331.50 C 1080.33 336.45 1083.48 343.20 1085.01 346.50 C 1086.54 349.80 1091.43 360.32 1095.89 369.87 C 1100.35 379.43 1104.00 387.64 1104.00 388.12 C 1104.00 388.61 1096.13 389.00 1086.52 389.00 L 1069.04 389.00 L 1065.38 381.00 L 1061.72 373.00 L 1037.52 373.00 L 1013.32 373.00 L 1009.62 381.00 L 1005.92 389.00 L 988.00 389.00 L 970.07 389.00 L 971.93 384.75ZM 1051.00 345.62 C 1051.00 345.02 1043.52 327.20 1040.52 320.63 C 1039.04 317.41 1037.46 315.16 1037.00 315.63 C 1036.54 316.11 1034.50 320.54 1032.46 325.48 C 1030.43 330.41 1027.69 336.80 1026.38 339.66 C 1025.07 342.53 1024.00 345.13 1024.00 345.44 C 1024.00 345.75 1030.08 346.00 1037.50 346.00 C 1044.92 346.00 1051.00 345.83 1051.00 345.62Z"/></g>
<g fill="#000000FF">
<path d="M 1231.07 387.35 C 1220.99 385.37 1213.50 381.62 1207.39 375.51 C 1197.44 365.57 1193.75 350.58 1197.57 335.64 C 1199.89 326.61 1204.15 318.48 1222.30 288.50 L 1238.64 261.50 L 1255.82 261.23 C 1265.27 261.08 1273.00 261.20 1273.00 261.50 C 1273.00 261.79 1267.38 271.56 1260.50 283.20 C 1253.62 294.84 1248.00 304.73 1248.00 305.18 C 1248.00 305.63 1250.65 306.00 1253.89 306.00 C 1262.10 306.00 1271.87 309.25 1277.83 313.96 C 1284.39 319.14 1288.43 326.46 1290.62 337.08 C 1292.30 345.26 1292.30 346.07 1290.63 354.56 C 1286.89 373.62 1276.45 383.56 1256.12 387.42 C 1246.15 389.31 1240.97 389.29 1231.07 387.35ZM 1253.76 359.36 C 1262.33 353.08 1261.97 338.19 1253.10 332.27 C 1250.53 330.55 1248.27 330.00 1243.80 330.00 C 1232.86 330.00 1228.01 334.85 1228.00 345.80 C 1228.00 353.85 1229.90 357.58 1235.32 360.11 C 1240.73 362.64 1249.79 362.27 1253.76 359.36Z"/></g>
<g fill="#000000FF">
<path d="M 1693.55 386.89 C 1685.56 385.72 1681.62 384.40 1674.50 380.46 C 1663.64 374.47 1656.93 365.00 1655.56 353.75 L 1654.86 348.00 L 1669.93 348.00 C 1683.70 348.00 1685.00 348.15 1685.00 349.78 C 1685.00 352.62 1687.81 355.86 1692.32 358.22 C 1698.61 361.52 1710.84 361.39 1717.00 357.97 C 1722.19 355.08 1724.31 350.61 1722.88 345.54 C 1721.12 339.28 1715.02 336.80 1698.00 335.43 C 1676.57 333.71 1662.53 324.94 1658.06 310.46 C 1655.67 302.71 1655.51 298.43 1657.36 291.50 C 1660.13 281.09 1664.26 275.30 1673.00 269.54 C 1682.96 262.99 1688.31 261.55 1703.00 261.52 C 1716.65 261.50 1722.06 262.74 1731.50 268.06 C 1741.48 273.69 1748.64 284.09 1749.72 294.55 L 1750.28 300.00 L 1735.83 300.00 L 1721.38 300.00 L 1719.72 296.23 C 1716.97 289.99 1709.78 287.26 1699.50 288.54 C 1692.41 289.43 1688.06 292.99 1687.34 298.50 C 1686.28 306.53 1691.98 309.95 1709.77 311.95 C 1739.60 315.31 1751.78 324.27 1754.40 344.78 C 1755.20 351.06 1752.86 361.68 1749.49 367.00 C 1739.81 382.31 1717.22 390.34 1693.55 386.89Z"/></g>
<g fill="#000000FF">
<path d="M 789.00 325.00 L 789.00 261.00 L 828.50 261.00 L 868.00 261.00 L 868.00 275.00 L 868.00 289.00 L 845.00 289.00 L 822.00 289.00 L 822.00 304.00 L 822.00 319.00 L 842.50 319.00 L 863.00 319.00 L 863.00 333.00 L 863.00 347.00 L 842.50 347.00 L 822.00 347.00 L 822.00 368.00 L 822.00 389.00 L 805.50 389.00 L 789.00 389.00 L 789.00 325.00Z"/></g>
<g fill="#000000FF">
<path d="M 1126.76 339.25 L 1126.50 289.50 L 1110.75 289.22 L 1095.00 288.95 L 1095.00 274.97 L 1095.00 261.00 L 1142.50 261.00 L 1190.00 261.00 L 1190.00 274.97 L 1190.00 288.95 L 1174.25 289.22 L 1158.50 289.50 L 1158.24 339.25 L 1157.98 389.00 L 1142.50 389.00 L 1127.02 389.00 L 1126.76 339.25Z"/></g>
<g fill="#000000FF">
<path d="M 889.00 325.00 L 889.00 261.00 L 905.50 261.00 L 922.00 261.00 L 922.00 310.00 L 922.00 359.00 L 945.00 359.00 C 958.17 359.00 968.00 359.39 968.00 359.91 C 968.00 360.41 965.00 367.16 961.33 374.91 L 954.66 389.00 L 921.83 389.00 L 889.00 389.00 L 889.00 325.00Z"/></g>
<g fill="#000000FF">
<path d="M 1315.00 325.00 L 1315.00 261.00 L 1331.50 261.00 L 1348.00 261.00 L 1348.00 310.00 L 1348.00 359.00 L 1371.00 359.00 C 1383.65 359.00 1394.00 359.37 1394.00 359.82 C 1394.00 360.28 1392.73 363.31 1391.17 366.57 C 1389.62 369.83 1386.62 376.21 1384.51 380.75 L 1380.68 389.00 L 1347.84 389.00 L 1315.00 389.00 L 1315.00 325.00Z"/></g>
<g fill="#FFEC97FF">
<path d="M 348.33 525.25 C 403.79 525.11 494.24 525.11 549.33 525.25 C 604.42 525.39 559.05 525.51 448.50 525.51 C 337.95 525.51 292.87 525.39 348.33 525.25Z"/></g>
<g fill="#FFEC97FF">
<path d="M 649.49 324.00 C 649.49 213.72 649.61 168.61 649.75 223.75 C 649.89 278.89 649.89 369.11 649.75 424.25 C 649.61 479.39 649.49 434.28 649.49 324.00Z"/></g>
</svg>
