<?xml version="1.0" encoding="utf-8"?>
<!DOCTYPE svg PUBLIC "-//W3C//DTD SVG 20010904//EN" "http://www.w3.org/TR/2001/REC-SVG-20010904/DTD/svg10.dtd">
<svg version="1.0" xmlns="http://www.w3.org/2000/svg" width="1502pt" height="1502pt" viewBox="0 0 1502 1502" preserveAspectRatio="xMidYMid meet">
<g fill="#000000FF">
<path d="M 516.00 1065.50 L 516.00 987.00 L 751.50 987.00 L 987.00 987.00 L 987.00 908.00 L 987.00 829.00 L 751.50 829.00 L 516.00 829.00 L 516.00 751.00 L 516.00 673.00 L 751.50 673.00 L 987.00 673.00 L 987.00 594.00 L 987.00 515.00 L 751.50 515.00 L 516.00 515.00 L 516.00 436.50 L 516.00 358.00 L 751.25 358.00 L 986.50 358.00 L 1065.25 436.75 L 1144.00 515.50 L 1144.00 593.50 L 1144.00 671.49 L 1104.25 711.25 L 1064.51 751.00 L 1104.25 790.75 L 1144.00 830.51 L 1144.00 908.51 L 1144.00 986.50 L 1065.25 1065.25 L 986.50 1144.00 L 751.25 1144.00 L 516.00 1144.00 L 516.00 1065.50Z"/></g>
<g fill="#000000FF">
<path d="M 358.00 594.00 L 358.00 516.00 L 436.50 516.00 L 515.00 516.00 L 515.00 594.00 L 515.00 672.00 L 436.50 672.00 L 358.00 672.00 L 358.00 594.00Z"/></g>
<g fill="#000000FF">
<path d="M 358.00 908.00 L 358.00 830.00 L 436.50 830.00 L 515.00 830.00 L 515.00 908.00 L 515.00 986.00 L 436.50 986.00 L 358.00 986.00 L 358.00 908.00Z"/></g>
<g fill="#595959FF">
<path d="M 515.00 751.00 L 515.00 672.00 L 751.25 672.25 L 987.50 672.50 L 751.75 672.75 L 516.00 673.00 L 516.00 751.00 L 516.00 829.00 L 751.75 829.25 L 987.50 829.50 L 751.25 829.75 L 515.00 830.00 L 515.00 751.00Z"/></g>
<g fill="#AFAFAFFF">
<path d="M 436.50 672.25 L 515.00 671.99 L 515.00 593.49 L 515.00 515.00 L 750.75 515.25 L 986.50 515.50 L 986.51 593.50 L 986.52 671.50 L 986.25 593.75 L 985.99 516.00 L 751.00 516.00 L 516.01 516.00 L 515.76 594.25 L 515.50 672.50 L 436.75 672.51 L 358.00 672.52 L 436.50 672.25Z"/></g>
<g fill="#AFAFAFFF">
<path d="M 515.00 908.51 L 515.00 830.01 L 436.50 829.75 L 358.00 829.48 L 436.75 829.49 L 515.50 829.50 L 515.76 907.75 L 516.01 986.00 L 751.00 986.00 L 985.99 986.00 L 986.25 907.75 L 986.52 829.50 L 986.51 908.00 L 986.50 986.50 L 750.75 986.75 L 515.00 987.00 L 515.00 908.51Z"/></g>
</svg>
