<?xml version="1.0" encoding="utf-8"?>
<!DOCTYPE svg PUBLIC "-//W3C//DTD SVG 20010904//EN" "http://www.w3.org/TR/2001/REC-SVG-20010904/DTD/svg10.dtd">
<svg version="1.0" xmlns="http://www.w3.org/2000/svg" width="720pt" height="371pt" viewBox="0 0 720 371" preserveAspectRatio="xMidYMid meet">
<g fill="#343434FF">
<path d="M 124.00 226.57 C 124.00 225.79 125.63 221.63 127.61 217.32 C 129.60 213.02 133.15 205.22 135.50 200.00 C 137.85 194.78 141.45 186.90 143.50 182.50 C 145.55 178.10 148.01 172.70 148.97 170.50 C 154.67 157.42 162.41 141.41 163.29 140.84 C 165.03 139.73 166.59 140.93 168.46 144.79 C 169.44 146.83 175.56 160.28 182.06 174.67 C 188.56 189.07 195.08 203.47 196.56 206.67 C 203.24 221.13 205.00 225.28 205.00 226.59 C 205.00 227.64 203.51 228.00 199.15 228.00 L 193.29 228.00 L 189.21 218.75 L 185.13 209.50 L 164.42 209.50 L 143.71 209.50 L 139.68 218.75 L 135.66 228.00 L 129.83 228.00 C 125.45 228.00 124.00 227.65 124.00 226.57ZM 180.00 198.58 C 180.00 196.96 165.14 165.52 164.41 165.61 C 163.60 165.71 149.15 196.39 149.04 198.25 C 149.02 198.66 155.97 199.00 164.50 199.00 C 173.03 199.00 180.00 198.81 180.00 198.58Z"/></g>
<g fill="#343434FF">
<path d="M 587.58 227.13 C 587.25 226.60 588.31 223.31 589.93 219.81 C 591.55 216.32 600.12 197.49 608.97 177.98 C 617.83 158.47 625.82 141.93 626.74 141.24 C 629.14 139.43 630.10 140.71 635.82 153.50 C 638.52 159.55 641.88 166.97 643.27 170.00 C 651.33 187.51 669.00 226.95 669.00 227.43 C 669.00 227.75 666.27 228.00 662.93 228.00 L 656.86 228.00 L 652.42 218.50 L 647.98 209.00 L 628.11 209.00 C 613.42 209.00 607.98 209.33 607.24 210.25 C 606.69 210.94 604.68 215.10 602.76 219.50 L 599.28 227.50 L 593.73 227.80 C 590.67 227.96 587.91 227.66 587.58 227.13ZM 643.00 198.12 C 643.00 197.23 640.87 192.25 634.81 179.00 C 632.92 174.88 630.79 170.04 630.07 168.25 C 628.37 164.03 627.25 164.15 625.36 168.75 C 624.51 170.81 622.00 176.55 619.78 181.50 C 617.56 186.45 614.92 192.41 613.91 194.75 L 612.07 199.00 L 627.54 199.00 C 636.04 199.00 643.00 198.61 643.00 198.12Z"/></g>
<g fill="#343434FF">
<path d="M 486.50 208.31 C 476.60 196.44 464.68 182.10 460.00 176.44 C 455.32 170.78 451.16 166.11 450.75 166.07 C 450.34 166.03 450.00 179.95 450.00 197.00 L 450.00 228.00 L 444.00 228.00 L 438.00 228.00 L 438.00 184.57 C 438.00 141.18 438.00 141.13 440.12 140.46 C 442.72 139.64 440.59 137.41 471.42 173.25 C 485.03 189.06 496.57 202.00 497.08 202.00 C 497.62 202.00 498.00 189.65 498.00 171.95 L 498.00 141.90 L 503.75 142.20 L 509.50 142.50 L 509.76 184.88 C 510.03 228.45 509.90 230.08 506.13 229.94 C 505.23 229.91 496.40 220.18 486.50 208.31Z"/></g>
<g fill="#343434FF">
<path d="M 262.00 228.86 C 235.25 224.44 218.55 196.43 227.46 170.92 C 234.73 150.12 255.57 137.50 276.75 141.08 C 286.24 142.69 300.00 149.99 300.00 153.42 C 300.00 154.71 293.89 161.00 292.64 161.00 C 292.21 161.00 290.43 159.91 288.68 158.58 C 283.17 154.40 277.10 152.49 269.50 152.57 C 257.04 152.70 247.44 158.98 241.34 171.00 C 238.93 175.76 238.55 177.65 238.58 185.00 C 238.60 191.79 239.06 194.45 240.90 198.22 C 246.47 209.68 255.62 216.14 267.24 216.83 C 276.28 217.36 279.61 216.61 286.45 212.49 C 289.64 210.57 292.68 209.00 293.21 209.00 C 294.86 209.00 300.00 214.40 300.00 216.13 C 300.00 219.88 286.78 227.18 276.92 228.87 C 269.59 230.13 269.69 230.13 262.00 228.86Z"/></g>
<g fill="#343434FF">
<path d="M 51.00 185.00 L 51.00 142.00 L 57.00 142.00 L 63.00 142.00 L 63.00 179.48 L 63.00 216.95 L 80.75 217.23 L 98.50 217.50 L 98.80 222.75 L 99.10 228.00 L 75.05 228.00 L 51.00 228.00 L 51.00 185.00Z"/></g>
<g fill="#343434FF">
<path d="M 548.48 226.80 C 548.20 226.08 548.09 206.82 548.24 184.00 L 548.50 142.50 L 554.22 142.20 C 559.47 141.93 559.98 142.09 560.50 144.20 C 560.80 145.47 560.93 164.72 560.78 187.00 L 560.50 227.50 L 554.74 227.80 C 550.70 228.01 548.83 227.71 548.48 226.80Z"/></g>
<g fill="#3CAF99FF">
<path d="M 358.10 228.42 C 341.96 224.08 329.44 211.24 325.89 195.40 C 325.22 192.42 324.96 189.70 325.31 189.36 C 325.66 189.01 328.46 189.80 331.54 191.11 C 336.30 193.14 337.51 194.22 339.63 198.34 C 343.19 205.25 349.19 211.35 355.15 214.11 C 359.71 216.23 360.61 217.18 363.05 222.50 C 366.77 230.61 366.68 230.72 358.10 228.42Z"/></g>
<g fill="#3CAF99FF">
<path d="M 325.02 178.75 C 325.06 174.32 329.77 163.22 333.96 157.66 C 339.08 150.89 348.17 144.56 355.88 142.41 C 358.97 141.55 362.25 140.64 363.17 140.38 C 365.95 139.61 365.93 141.23 363.08 147.50 C 360.65 152.84 359.78 153.77 355.12 155.95 C 348.98 158.82 342.62 165.34 339.85 171.62 C 338.16 175.42 337.04 176.45 332.31 178.54 C 325.49 181.56 324.99 181.57 325.02 178.75Z"/></g>
<g fill="#3CAF99FF">
<path d="M 406.29 178.52 C 402.03 176.58 400.70 175.34 398.98 171.69 C 395.82 164.96 390.74 159.62 384.42 156.40 C 379.44 153.85 378.40 152.78 375.92 147.59 C 374.36 144.33 373.28 141.35 373.53 140.95 C 374.27 139.76 383.12 142.03 389.56 145.06 C 400.79 150.36 411.61 164.67 413.51 176.75 C 414.30 181.80 413.79 181.93 406.29 178.52Z"/></g>
<g fill="#3CAF99FF">
<path d="M 373.58 229.13 C 373.31 228.69 374.35 225.67 375.89 222.41 C 378.25 217.44 379.43 216.15 383.31 214.28 C 389.93 211.10 395.22 205.93 398.30 199.63 C 400.66 194.83 401.68 193.84 406.61 191.58 C 409.71 190.16 412.68 189.00 413.21 189.00 C 414.82 189.00 413.05 197.03 409.97 203.76 C 406.76 210.75 398.63 219.96 392.48 223.56 C 385.76 227.50 374.61 230.79 373.58 229.13Z"/></g>
<g fill="#A9B5B3FF">
<path d="M 437.22 184.31 C 437.10 160.55 437.34 140.91 437.75 140.65 C 438.43 140.23 438.42 172.41 437.72 212.00 C 437.57 220.53 437.35 208.06 437.22 184.31Z"/></g>
<g fill="#A9B5B3FF">
<path d="M 50.46 185.50 C 50.46 161.85 50.59 152.32 50.75 164.32 C 50.91 176.32 50.91 195.67 50.75 207.32 C 50.59 218.97 50.46 209.15 50.46 185.50Z"/></g>
<g fill="#A9B5B3FF">
<path d="M 547.46 185.50 C 547.46 162.40 547.59 153.09 547.75 164.82 C 547.91 176.54 547.91 195.44 547.75 206.82 C 547.59 218.19 547.46 208.60 547.46 185.50Z"/></g>
<g fill="#6D6D6DFF">
<path d="M 63.45 180.00 C 63.45 159.38 63.59 150.94 63.75 161.25 C 63.91 171.56 63.91 188.44 63.75 198.75 C 63.59 209.06 63.45 200.62 63.45 180.00Z"/></g>
</svg>
