<?xml version="1.0" encoding="utf-8"?>
<!DOCTYPE svg PUBLIC "-//W3C//DTD SVG 20010904//EN" "http://www.w3.org/TR/2001/REC-SVG-20010904/DTD/svg10.dtd">
<svg version="1.0" xmlns="http://www.w3.org/2000/svg" width="1684pt" height="252pt" viewBox="0 0 1684 252" preserveAspectRatio="xMidYMid meet">
<g fill="#000000FE">
<path d="M 686.00 129.05 L 686.00 18.91 L 722.25 19.27 C 760.63 19.65 770.35 20.56 785.50 25.16 C 827.71 38.00 853.15 63.26 862.66 101.78 C 864.97 111.18 865.30 114.54 865.31 129.00 C 865.31 142.45 864.91 147.16 863.16 154.50 C 855.52 186.41 837.28 209.46 808.13 224.06 C 798.40 228.93 788.00 232.38 773.00 235.74 C 762.02 238.20 759.79 238.33 723.75 238.76 L 686.00 239.20 L 686.00 129.05ZM 767.27 196.13 C 801.34 187.89 821.00 163.39 821.00 129.16 C 821.00 101.97 809.88 82.01 787.55 69.11 C 776.12 62.51 762.89 59.64 743.50 59.56 L 729.50 59.50 L 729.24 128.00 C 729.10 165.68 729.22 197.12 729.51 197.88 C 730.33 200.03 756.06 198.84 767.27 196.13Z"/></g>
<g fill="#000000FE">
<path d="M 911.25 129.33 L 911.50 19.50 L 946.99 19.24 C 981.44 18.98 982.81 19.05 993.49 21.41 C 1006.69 24.33 1013.43 27.21 1021.70 33.43 C 1035.46 43.78 1042.31 58.74 1042.36 78.50 C 1042.39 94.56 1038.86 104.40 1028.83 116.17 C 1026.17 119.29 1024.00 122.10 1024.00 122.41 C 1024.00 122.72 1026.61 124.29 1029.79 125.89 C 1040.71 131.41 1049.19 140.72 1054.77 153.33 C 1057.39 159.24 1057.50 160.19 1057.49 176.00 C 1057.47 192.38 1057.45 192.56 1054.24 200.00 C 1046.32 218.35 1032.65 229.18 1009.25 235.65 L 999.50 238.35 L 955.25 238.75 L 910.99 239.16 L 911.25 129.33ZM 988.67 200.91 C 998.54 199.54 1001.77 198.17 1007.39 193.00 C 1013.18 187.65 1015.52 181.70 1015.44 172.50 C 1015.33 160.12 1010.00 152.22 998.00 146.62 L 991.50 143.58 L 972.50 143.54 L 953.50 143.50 L 953.23 171.49 C 953.09 186.88 953.19 200.04 953.45 200.74 C 954.07 202.36 977.44 202.48 988.67 200.91ZM 983.59 109.88 C 989.74 107.58 996.26 102.33 998.60 97.80 C 1001.31 92.56 1002.27 84.25 1000.97 77.33 C 999.38 68.89 994.98 63.12 987.27 59.33 C 981.90 56.70 980.51 56.48 967.25 56.16 L 953.00 55.81 L 953.00 83.24 C 953.00 98.32 953.30 110.97 953.67 111.33 C 954.03 111.70 959.64 112.00 966.13 112.00 C 975.70 112.00 978.99 111.60 983.59 109.88Z"/></g>
<g fill="#000000FE">
<path d="M 1563.00 242.02 C 1534.78 239.54 1509.98 227.63 1491.18 207.53 C 1476.28 191.60 1465.88 169.94 1462.95 148.72 C 1461.54 138.49 1461.54 118.93 1462.96 109.00 C 1465.08 94.07 1471.75 77.08 1481.02 63.00 C 1483.37 59.42 1489.40 52.45 1494.40 47.50 C 1515.97 26.16 1543.66 15.55 1577.00 15.87 C 1606.67 16.14 1633.41 27.61 1652.74 48.35 C 1658.25 54.27 1667.00 66.33 1667.00 68.01 C 1667.00 68.35 1665.54 69.39 1663.75 70.31 C 1661.96 71.24 1657.12 74.22 1653.00 76.93 C 1634.27 89.25 1633.84 89.47 1632.70 87.39 C 1630.30 83.01 1616.60 70.16 1610.30 66.40 C 1598.28 59.20 1591.70 57.55 1575.00 57.52 C 1561.64 57.50 1559.93 57.71 1553.28 60.22 C 1541.45 64.67 1536.75 67.48 1528.93 74.81 C 1520.24 82.94 1514.55 91.91 1510.41 104.00 C 1507.65 112.05 1507.50 113.38 1507.51 129.00 C 1507.52 146.99 1508.89 153.72 1515.05 166.00 C 1521.44 178.75 1534.78 190.95 1548.18 196.28 C 1568.55 204.38 1595.70 201.92 1613.83 190.33 C 1624.62 183.43 1635.17 169.83 1637.56 159.75 L 1638.22 157.00 L 1605.11 157.00 L 1572.00 157.00 L 1572.00 140.00 L 1572.00 123.00 L 1626.50 123.00 L 1681.00 123.00 L 1681.00 135.56 C 1681.00 150.56 1679.77 159.74 1676.31 170.50 C 1667.94 196.52 1650.90 217.16 1627.64 229.47 C 1618.84 234.13 1609.85 237.50 1602.40 238.93 C 1599.16 239.55 1594.70 240.48 1592.50 240.98 C 1586.83 242.27 1571.83 242.80 1563.00 242.02Z"/></g>
<g fill="#000000FE">
<path d="M 1285.00 129.00 L 1285.00 19.00 L 1320.75 19.03 C 1354.28 19.06 1357.23 19.21 1368.21 21.43 C 1381.07 24.02 1393.02 29.12 1401.14 35.47 C 1407.16 40.17 1414.20 49.18 1417.50 56.41 C 1420.20 62.31 1424.00 79.69 1424.00 86.14 C 1424.00 92.01 1420.17 109.44 1417.73 114.68 C 1412.30 126.32 1402.68 136.33 1391.43 142.04 C 1387.89 143.83 1385.00 145.47 1385.00 145.69 C 1385.00 145.90 1388.44 152.02 1392.65 159.29 C 1396.86 166.56 1406.47 183.30 1414.00 196.50 C 1421.52 209.70 1430.01 224.47 1432.84 229.33 C 1435.68 234.18 1438.00 238.36 1438.00 238.60 C 1438.00 238.84 1427.11 238.92 1413.80 238.77 L 1389.61 238.50 L 1384.65 230.00 C 1381.93 225.32 1371.05 206.20 1360.48 187.50 L 1341.26 153.50 L 1334.63 153.20 L 1328.00 152.91 L 1328.00 195.95 L 1328.00 239.00 L 1306.50 239.00 L 1285.00 239.00 L 1285.00 129.00ZM 1356.20 118.55 C 1373.62 114.85 1383.53 101.23 1381.54 83.69 C 1380.26 72.37 1374.28 64.77 1362.34 59.29 C 1357.09 56.88 1355.06 56.57 1342.25 56.18 L 1328.00 55.75 L 1328.00 87.87 L 1328.00 120.00 L 1338.75 119.98 C 1344.66 119.97 1352.52 119.33 1356.20 118.55Z"/></g>
<g fill="#000000FE">
<path d="M 611.50 236.79 C 592.83 219.24 569.59 197.33 547.02 175.99 C 536.83 166.35 521.08 151.52 512.00 143.03 C 502.93 134.53 492.12 124.37 488.00 120.45 C 483.88 116.52 478.02 111.00 475.00 108.18 L 469.50 103.06 L 469.24 171.03 L 468.99 239.00 L 447.24 239.00 L 425.50 239.00 L 425.50 123.59 C 425.50 -0.15 425.19 7.48 430.02 12.00 C 432.94 14.73 464.30 44.35 473.47 53.05 C 478.44 57.75 486.77 65.61 492.00 70.52 C 502.96 80.81 512.58 89.90 526.00 102.66 C 562.73 137.56 581.45 155.00 582.17 155.00 C 582.62 155.00 583.00 124.40 583.00 87.00 L 583.00 19.00 L 604.50 19.00 L 626.00 19.00 L 626.00 134.50 C 626.00 198.03 625.89 249.99 625.75 249.98 C 625.61 249.96 619.20 244.03 611.50 236.79Z"/></g>
<g fill="#000000FE">
<path d="M 75.50 242.02 C 51.00 239.82 32.55 231.03 18.32 214.77 C 12.37 207.96 6.27 196.73 8.20 196.12 C 9.55 195.69 16.91 192.46 25.50 188.52 C 46.48 178.91 44.19 179.20 48.41 185.55 C 51.72 190.54 62.86 199.99 65.45 200.01 C 66.03 200.01 67.85 200.78 69.50 201.71 C 71.87 203.05 75.14 203.42 85.00 203.46 C 96.66 203.50 97.84 203.32 102.50 200.84 C 115.56 193.89 120.52 180.87 114.58 169.15 C 109.92 159.97 100.49 154.00 78.00 146.04 C 71.67 143.80 65.08 141.30 63.35 140.48 C 61.62 139.67 59.82 138.99 59.35 138.98 C 58.88 138.97 55.48 137.43 51.79 135.56 C 26.58 122.79 15.63 107.21 14.29 82.19 C 13.65 70.38 15.17 62.87 20.38 52.01 C 25.99 40.34 42.41 25.93 54.57 22.01 C 56.73 21.31 58.97 20.37 59.56 19.91 C 61.59 18.30 78.60 15.90 88.00 15.89 C 104.45 15.87 118.19 19.25 131.50 26.59 C 141.82 32.29 159.59 53.84 156.49 56.90 C 155.95 57.43 147.51 61.47 137.74 65.87 L 119.98 73.87 L 118.04 70.07 C 116.97 67.98 113.85 64.25 111.10 61.78 C 92.09 44.69 58.00 55.11 58.00 78.01 C 58.00 90.00 67.04 98.11 89.82 106.56 C 132.09 122.24 144.35 129.86 153.83 146.34 C 159.21 155.70 160.49 161.57 160.49 177.00 C 160.50 190.44 160.30 192.04 157.71 198.93 C 156.17 203.02 152.85 209.47 150.33 213.26 C 136.92 233.42 107.17 244.86 75.50 242.02Z"/></g>
<g fill="#000000FE">
<path d="M 1104.00 129.00 L 1104.00 19.00 L 1164.50 19.00 L 1225.00 19.00 L 1225.00 38.49 L 1225.00 57.98 L 1186.25 58.24 L 1147.50 58.50 L 1147.50 83.50 L 1147.50 108.50 L 1186.25 108.76 L 1225.00 109.02 L 1225.00 127.50 L 1225.00 145.98 L 1186.25 146.24 L 1147.50 146.50 L 1147.50 173.00 L 1147.50 199.50 L 1186.25 199.76 L 1225.00 200.02 L 1225.00 219.51 L 1225.00 239.00 L 1164.50 239.00 L 1104.00 239.00 L 1104.00 129.00Z"/></g>
<g fill="#000000FE">
<path d="M 177.86 235.25 C 178.90 233.19 181.11 228.57 182.76 225.00 C 190.38 208.53 192.49 203.97 196.00 196.50 C 200.06 187.84 205.83 175.46 209.51 167.50 C 217.35 150.52 219.55 145.78 222.51 139.50 C 234.17 114.73 236.00 110.79 236.00 110.45 C 236.00 110.25 239.15 103.49 243.00 95.43 C 246.85 87.37 250.00 80.65 250.00 80.48 C 250.00 80.32 252.93 74.04 256.50 66.54 C 260.07 59.03 263.00 52.73 263.00 52.53 C 263.00 52.33 265.19 47.52 267.87 41.84 C 276.79 22.92 280.24 15.54 282.02 11.50 L 283.79 7.50 L 288.00 16.50 C 292.16 25.40 295.06 31.64 301.12 44.75 C 302.84 48.46 306.89 57.04 310.12 63.81 C 313.36 70.59 316.00 76.29 316.00 76.48 C 316.00 76.68 318.02 81.15 320.50 86.42 C 322.98 91.69 327.02 100.31 329.50 105.58 C 331.98 110.85 334.00 115.30 334.00 115.47 C 334.00 115.63 336.96 122.01 340.58 129.64 C 344.19 137.26 347.97 145.30 348.98 147.50 C 349.98 149.70 353.10 156.38 355.90 162.34 C 358.71 168.31 361.00 173.32 361.00 173.49 C 361.00 173.65 364.15 180.37 368.00 188.43 C 371.85 196.49 375.00 203.25 375.00 203.45 C 375.00 203.92 383.99 223.13 388.48 232.27 L 391.81 239.04 L 368.86 238.77 L 345.92 238.50 L 329.92 203.00 C 321.12 183.47 313.07 165.70 312.02 163.50 C 310.98 161.30 308.35 155.45 306.18 150.50 C 304.02 145.55 300.79 138.35 299.01 134.50 C 297.23 130.65 294.97 125.70 293.97 123.50 C 292.98 121.30 290.76 116.44 289.04 112.69 C 287.31 108.94 285.47 104.73 284.94 103.33 C 284.13 101.22 283.71 100.99 282.48 102.01 C 281.67 102.69 281.00 103.67 281.00 104.18 C 281.00 104.70 279.82 107.68 278.39 110.81 C 274.33 119.65 272.60 123.49 266.14 138.02 C 262.83 145.45 259.42 152.88 258.57 154.52 C 257.71 156.16 257.01 157.81 257.01 158.19 C 257.00 158.57 255.23 162.62 253.08 167.19 C 250.92 171.76 246.15 182.25 242.48 190.50 C 238.81 198.75 234.56 208.20 233.03 211.50 C 231.51 214.80 228.12 222.34 225.51 228.25 L 220.74 239.00 L 198.35 239.00 L 175.96 239.00 L 177.86 235.25Z"/></g>
</svg>
