<?xml version="1.0" encoding="utf-8"?>
<!DOCTYPE svg PUBLIC "-//W3C//DTD SVG 20010904//EN" "http://www.w3.org/TR/2001/REC-SVG-20010904/DTD/svg10.dtd">
<svg version="1.0" xmlns="http://www.w3.org/2000/svg" width="764pt" height="680pt" viewBox="0 0 764 680" preserveAspectRatio="xMidYMid meet">
<g fill="#A08766FE">
<path d="M 435.00 630.07 L 435.00 584.00 L 454.39 584.00 C 476.06 584.00 481.06 584.95 487.56 590.31 C 492.45 594.34 494.95 600.06 494.98 607.28 C 495.02 617.22 491.67 622.88 483.63 626.46 L 478.75 628.63 L 483.31 630.38 C 485.82 631.33 489.45 633.87 491.38 636.00 C 496.19 641.32 497.56 646.74 496.19 654.94 C 494.75 663.58 491.13 668.60 483.54 672.49 L 477.65 675.50 L 456.33 675.82 L 435.00 676.14 L 435.00 630.07ZM 475.00 661.25 C 481.46 658.02 483.94 648.69 480.04 642.30 C 476.88 637.11 472.91 635.65 460.75 635.19 L 450.00 634.78 L 450.00 648.89 L 450.00 663.00 L 460.75 663.00 C 468.98 663.00 472.32 662.59 475.00 661.25ZM 473.99 620.51 C 478.32 618.26 480.00 615.20 480.00 609.50 C 480.00 599.94 475.47 596.89 460.25 596.20 L 450.00 595.74 L 450.00 608.87 L 450.00 622.00 L 460.55 622.00 C 467.95 622.00 471.96 621.55 473.99 620.51Z"/></g>
<g fill="#A08766FE">
<path d="M 609.34 677.01 C 600.03 675.06 592.82 669.26 588.82 660.50 C 585.63 653.51 585.53 637.71 588.63 630.95 C 593.34 620.66 602.52 614.13 613.48 613.25 C 621.43 612.62 627.24 614.32 632.06 618.67 L 636.00 622.23 L 636.00 603.12 L 636.00 584.00 L 643.00 584.00 L 650.00 584.00 L 650.00 630.00 L 650.00 676.00 L 643.00 676.00 L 636.00 676.00 L 636.00 672.05 L 636.00 668.09 L 633.63 670.46 C 628.01 676.08 617.93 678.80 609.34 677.01ZM 626.33 663.64 C 640.12 657.87 640.41 634.43 626.77 627.38 C 622.89 625.38 614.21 625.32 610.45 627.28 C 596.67 634.44 596.67 657.59 610.45 663.59 C 614.44 665.33 622.22 665.35 626.33 663.64Z"/></g>
<g fill="#A08766FE">
<path d="M 720.33 677.01 C 711.75 675.20 704.40 669.27 700.62 661.09 C 698.87 657.29 698.50 654.60 698.50 645.50 C 698.50 635.48 698.74 634.04 701.20 629.38 C 710.09 612.54 732.56 607.62 745.25 619.75 L 748.00 622.37 L 748.00 618.69 L 748.00 615.00 L 755.00 615.00 L 762.00 615.00 L 762.00 645.50 L 762.00 676.00 L 755.00 676.00 L 748.00 676.00 L 748.00 671.80 L 748.00 667.61 L 744.75 670.69 C 738.32 676.80 729.77 679.01 720.33 677.01ZM 740.80 662.15 C 746.85 657.83 749.76 648.65 747.87 639.83 C 745.99 631.05 739.51 625.76 730.53 625.67 C 720.02 625.56 712.97 632.22 712.19 642.98 C 711.51 652.41 714.38 658.63 721.50 663.19 C 725.80 665.94 736.26 665.37 740.80 662.15Z"/></g>
<g fill="#A08766FE">
<path d="M 529.73 676.91 C 515.29 673.51 507.48 662.28 507.53 645.00 C 507.55 638.01 508.01 635.52 510.12 631.00 C 513.67 623.37 517.19 619.54 523.49 616.46 C 533.95 611.34 545.88 612.19 552.93 618.55 C 555.03 620.45 557.03 622.00 557.37 622.00 C 557.72 622.00 558.00 620.42 558.00 618.50 L 558.00 615.00 L 564.50 615.00 L 571.00 615.00 L 571.00 645.50 L 571.00 676.00 L 564.50 676.00 L 558.00 676.00 L 558.00 671.92 L 558.00 667.84 L 553.79 671.44 C 547.21 677.08 538.67 679.02 529.73 676.91ZM 547.93 663.54 C 554.76 660.00 558.48 652.27 557.81 642.98 C 557.03 632.22 550.13 625.71 539.50 625.71 C 530.87 625.71 524.84 630.31 522.38 638.76 C 519.29 649.40 524.09 660.93 533.00 664.28 C 536.02 665.41 545.18 664.96 547.93 663.54Z"/></g>
<g fill="#A08766FE">
<path d="M 269.08 676.41 C 262.40 674.61 258.11 672.02 253.93 667.26 C 248.34 660.90 246.56 655.64 246.56 645.50 C 246.56 634.79 248.76 628.89 255.20 622.31 C 261.53 615.84 267.67 613.53 278.60 613.52 C 287.04 613.50 288.20 613.75 294.60 617.01 C 299.95 619.73 302.23 621.61 304.76 625.38 C 309.31 632.18 311.35 639.84 310.77 647.94 C 309.70 662.98 300.38 673.96 286.20 676.90 C 279.39 678.31 275.77 678.21 269.08 676.41ZM 286.33 663.64 C 293.52 660.63 297.59 652.46 296.71 642.79 C 295.73 631.95 289.08 625.71 278.52 625.71 C 272.63 625.71 268.29 627.68 264.66 632.00 C 256.58 641.59 259.76 658.94 270.45 663.59 C 274.44 665.33 282.22 665.35 286.33 663.64Z"/></g>
<g fill="#A08766FE">
<path d="M 22.17 676.52 C 12.56 673.52 6.17 666.61 3.49 656.29 C 0.82 646.04 0.84 646.00 9.50 646.00 L 17.00 646.00 L 17.00 648.79 C 17.00 652.93 21.05 660.19 24.72 662.62 C 31.21 666.93 41.99 666.50 47.54 661.72 C 50.67 659.01 52.15 653.14 50.87 648.49 C 49.54 643.66 44.41 639.89 33.21 635.50 C 19.00 629.93 14.79 627.62 10.75 623.15 C 2.67 614.20 2.93 598.90 11.30 590.16 C 21.88 579.13 42.31 578.37 55.62 588.52 C 59.32 591.34 63.55 599.53 64.51 605.75 L 65.18 610.00 L 57.68 610.00 L 50.18 610.00 L 49.50 606.03 C 48.21 598.39 42.37 594.00 33.48 594.00 C 25.01 594.00 20.00 598.34 20.00 605.69 C 20.00 613.35 23.57 616.08 45.20 624.98 C 60.61 631.32 66.00 638.19 66.00 651.50 C 66.00 664.09 59.43 673.01 47.58 676.53 C 41.49 678.34 27.99 678.33 22.17 676.52Z"/></g>
<g fill="#A08766FE">
<path d="M 326.00 645.50 L 326.00 615.00 L 333.00 615.00 L 340.00 615.00 L 340.00 618.70 L 340.00 622.39 L 343.35 619.14 C 348.93 613.74 359.50 611.62 368.48 614.12 C 373.57 615.53 379.47 621.43 380.88 626.52 C 381.54 628.88 381.99 639.74 381.99 653.25 L 382.00 676.00 L 375.00 676.00 L 368.00 676.00 L 368.00 655.97 C 368.00 634.10 367.41 631.04 362.49 627.17 C 356.62 622.56 345.45 625.24 341.95 632.10 C 340.21 635.51 340.00 638.06 340.00 655.96 L 340.00 676.00 L 333.00 676.00 L 326.00 676.00 L 326.00 645.50Z"/></g>
<g fill="#A08766FE">
<path d="M 198.15 676.98 C 193.18 675.94 186.53 672.29 183.31 668.84 C 182.10 667.55 179.88 663.80 178.36 660.50 C 176.05 655.47 175.60 653.13 175.58 646.00 C 175.56 635.69 177.63 628.95 182.65 623.10 C 189.63 614.94 201.90 611.38 214.25 613.95 C 224.69 616.12 232.20 623.25 234.57 633.25 L 235.22 636.00 L 228.16 636.00 C 221.15 636.00 221.08 635.97 219.53 632.71 C 215.46 624.13 201.25 622.81 194.31 630.37 C 190.25 634.79 188.60 640.82 189.39 648.41 C 190.12 655.43 192.36 659.64 197.05 662.83 C 200.01 664.84 201.46 665.12 207.22 664.81 C 213.00 664.49 214.35 664.03 216.95 661.54 C 218.62 659.95 220.24 657.83 220.56 656.82 C 221.04 655.29 222.24 655.00 228.15 655.00 L 235.16 655.00 L 234.48 658.25 C 232.83 666.16 226.54 672.92 218.15 675.81 C 213.37 677.46 203.24 678.05 198.15 676.98Z"/></g>
<g fill="#A08766FE">
<path d="M 114.00 630.00 L 114.00 584.00 L 121.00 584.00 L 128.00 584.00 L 128.00 630.00 L 128.00 676.00 L 121.00 676.00 L 114.00 676.00 L 114.00 630.00Z"/></g>
<g fill="#A08766FE">
<path d="M 669.00 645.50 L 669.00 615.00 L 676.00 615.00 L 683.00 615.00 L 683.00 645.50 L 683.00 676.00 L 676.00 676.00 L 669.00 676.00 L 669.00 645.50Z"/></g>
<g fill="#A08766FE">
<path d="M 147.00 645.50 L 147.00 615.00 L 154.00 615.00 L 161.00 615.00 L 161.00 645.50 L 161.00 676.00 L 154.00 676.00 L 147.00 676.00 L 147.00 645.50Z"/></g>
<g fill="#A08766FE">
<path d="M 81.00 645.50 L 81.00 615.00 L 88.00 615.00 L 95.00 615.00 L 95.00 645.50 L 95.00 676.00 L 88.00 676.00 L 81.00 676.00 L 81.00 645.50Z"/></g>
<g fill="#A08766FE">
<path d="M 81.79 603.45 C 77.80 601.28 76.12 595.07 78.29 590.51 C 83.19 580.23 98.00 583.72 98.00 595.15 C 98.00 603.15 89.37 607.56 81.79 603.45Z"/></g>
<g fill="#A08766FE">
<path d="M 668.92 602.08 C 665.73 598.88 665.05 594.17 667.14 589.60 C 668.29 587.07 673.40 584.00 676.45 584.00 C 679.49 584.00 683.95 587.00 685.57 590.14 C 690.82 600.29 677.03 610.18 668.92 602.08Z"/></g>
<g fill="#A08766FE">
<path d="M 148.30 603.80 C 147.09 603.22 145.35 601.16 144.44 599.23 C 142.15 594.40 143.80 588.70 148.30 585.96 C 152.17 583.60 154.18 583.52 158.46 585.55 C 167.88 590.02 164.66 605.12 154.33 604.93 C 152.22 604.90 149.51 604.39 148.30 603.80Z"/></g>
<g fill="#A08766FE">
<path d="M 432.21 70.52 C 425.11 67.38 424.61 57.10 431.35 52.87 C 437.24 49.19 445.28 52.65 446.55 59.42 C 448.09 67.64 439.96 73.93 432.21 70.52Z"/></g>
<g fill="#A08766FE">
<path d="M 264.33 72.58 C 260.49 70.86 259.00 68.32 259.00 63.50 C 259.00 58.54 260.52 56.10 264.68 54.36 C 269.29 52.43 273.30 53.38 276.47 57.15 C 279.93 61.25 279.84 66.04 276.25 69.99 C 272.97 73.59 268.67 74.52 264.33 72.58Z"/></g>
<g fill="#A08766FE">
<path d="M 490.50 105.10 C 481.99 101.42 482.54 88.96 491.34 86.05 C 501.64 82.65 509.19 96.09 501.09 103.42 C 498.88 105.41 493.28 106.30 490.50 105.10Z"/></g>
<g fill="#A08766FE">
<path d="M 209.23 145.04 C 203.50 141.47 202.53 133.66 207.27 129.23 C 214.95 122.06 227.23 129.71 223.96 139.62 C 221.90 145.87 214.77 148.49 209.23 145.04Z"/></g>
<g fill="#A08766FE">
<path d="M 294.92 153.08 C 292.63 150.78 292.00 149.26 292.00 146.00 C 292.00 136.89 302.64 132.48 309.08 138.92 C 315.52 145.36 311.11 156.00 302.00 156.00 C 298.74 156.00 297.22 155.37 294.92 153.08Z"/></g>
<g fill="#A08766FE">
<path d="M 475.33 230.58 C 471.49 228.86 470.00 226.32 470.00 221.50 C 470.00 216.54 471.52 214.10 475.68 212.36 C 480.29 210.43 484.30 211.38 487.47 215.15 C 490.93 219.25 490.84 224.04 487.25 227.99 C 483.97 231.59 479.67 232.52 475.33 230.58Z"/></g>
<g fill="#A08766FE">
<path d="M 334.21 239.52 C 327.11 236.38 326.61 226.10 333.35 221.87 C 339.24 218.19 347.28 221.65 348.55 228.42 C 350.09 236.64 341.96 242.93 334.21 239.52Z"/></g>
<g fill="#A08766FE">
<path d="M 198.92 266.08 C 196.63 263.78 196.00 262.26 196.00 259.00 C 196.00 249.89 206.64 245.48 213.08 251.92 C 219.52 258.36 215.11 269.00 206.00 269.00 C 202.74 269.00 201.22 268.37 198.92 266.08Z"/></g>
<g fill="#A08766FE">
<path d="M 485.92 373.08 C 483.63 370.78 483.00 369.26 483.00 366.00 C 483.00 362.74 483.63 361.22 485.92 358.92 C 492.36 352.48 503.00 356.89 503.00 366.00 C 503.00 369.26 502.37 370.78 500.08 373.08 C 497.78 375.37 496.26 376.00 493.00 376.00 C 489.74 376.00 488.22 375.37 485.92 373.08Z"/></g>
<g fill="#A08766FE">
<path d="M 545.92 380.08 C 539.48 373.64 543.89 363.00 553.00 363.00 C 556.26 363.00 557.78 363.63 560.08 365.92 C 566.52 372.36 562.11 383.00 553.00 383.00 C 549.74 383.00 548.22 382.37 545.92 380.08Z"/></g>
<g fill="#A08766FE">
<path d="M 212.92 386.08 C 206.48 379.64 210.89 369.00 220.00 369.00 C 223.26 369.00 224.78 369.63 227.08 371.92 C 233.52 378.36 229.11 389.00 220.00 389.00 C 216.74 389.00 215.22 388.37 212.92 386.08Z"/></g>
<g fill="#A08766FE">
<path d="M 348.46 26.72 C 346.52 25.05 345.66 23.17 345.28 19.76 C 344.80 15.55 345.05 14.80 347.80 12.05 C 354.36 5.49 365.00 9.79 365.00 19.00 C 365.00 27.61 354.95 32.30 348.46 26.72Z"/></g>
<g fill="#A08766FE">
<path d="M 410.15 87.47 C 406.38 84.30 405.43 80.29 407.36 75.68 C 409.10 71.53 411.54 70.00 416.47 70.00 C 421.17 70.00 424.63 72.36 425.99 76.48 C 427.45 80.90 426.42 84.47 422.81 87.50 C 418.88 90.81 414.10 90.80 410.15 87.47Z"/></g>
<g fill="#A08766FE">
<path d="M 340.46 107.72 C 338.52 106.05 337.66 104.17 337.28 100.76 C 336.80 96.55 337.05 95.80 339.80 93.05 C 346.36 86.49 357.00 90.79 357.00 100.00 C 357.00 108.61 346.95 113.30 340.46 107.72Z"/></g>
<g fill="#A08766FE">
<path d="M 443.30 158.23 C 438.26 154.27 438.21 146.68 443.21 142.48 C 451.47 135.53 463.55 145.24 458.58 154.85 C 457.70 156.55 456.11 158.40 455.06 158.97 C 452.10 160.55 445.75 160.15 443.30 158.23Z"/></g>
<g fill="#A08766FE">
<path d="M 583.31 165.56 C 576.92 162.73 575.30 153.88 580.31 149.18 C 585.57 144.23 593.85 146.00 596.63 152.65 C 600.18 161.16 591.78 169.30 583.31 165.56Z"/></g>
<g fill="#A08766FE">
<path d="M 346.21 182.49 C 336.02 178.07 340.88 161.76 351.89 163.41 C 362.07 164.94 363.91 178.63 354.47 182.58 C 350.37 184.29 350.35 184.29 346.21 182.49Z"/></g>
<g fill="#A08766FE">
<path d="M 177.05 208.78 C 175.71 208.07 173.72 205.97 172.63 204.11 C 170.82 201.00 170.77 200.39 172.08 196.61 C 173.16 193.49 174.42 192.05 177.31 190.64 C 180.72 188.97 181.51 188.92 184.81 190.16 C 189.12 191.77 192.58 197.55 191.59 201.49 C 190.00 207.82 182.44 211.61 177.05 208.78Z"/></g>
<g fill="#A08766FE">
<path d="M 217.50 246.05 C 208.99 242.57 209.54 229.96 218.34 227.05 C 229.54 223.36 236.72 238.93 226.65 245.07 C 223.30 247.11 220.75 247.39 217.50 246.05Z"/></g>
<g fill="#A08766FE">
<path d="M 376.30 350.50 C 373.62 348.62 371.70 343.03 372.56 339.60 C 373.52 335.81 378.50 332.00 382.50 332.00 C 386.50 332.00 391.48 335.81 392.44 339.60 C 393.34 343.18 391.39 348.52 388.48 350.42 C 385.43 352.42 379.10 352.46 376.30 350.50Z"/></g>
<g fill="#A08766FE">
<path d="M 574.05 363.78 C 572.71 363.07 570.72 360.97 569.63 359.11 C 567.82 356.00 567.77 355.39 569.08 351.61 C 570.16 348.49 571.42 347.05 574.31 345.64 C 577.72 343.97 578.51 343.92 581.81 345.16 C 586.12 346.77 589.58 352.55 588.59 356.49 C 587.00 362.82 579.44 366.61 574.05 363.78Z"/></g>
<g fill="#A08766FE">
<path d="M 269.31 379.51 C 262.76 376.71 261.31 367.87 266.60 362.91 C 269.86 359.85 276.76 359.57 279.86 362.37 C 288.62 370.30 280.12 384.13 269.31 379.51Z"/></g>
<g fill="#A08766FE">
<path d="M 439.96 400.62 C 435.71 399.24 432.50 393.56 433.47 389.13 C 435.69 379.01 451.29 378.93 453.50 389.02 C 454.14 391.91 452.06 398.23 450.07 399.46 C 447.25 401.20 443.20 401.66 439.96 400.62Z"/></g>
<g fill="#A08766FE">
<path d="M 350.19 413.50 C 346.58 410.47 345.55 406.90 347.01 402.48 C 348.37 398.36 351.83 396.00 356.53 396.00 C 361.46 396.00 363.90 397.53 365.64 401.68 C 367.57 406.29 366.62 410.30 362.85 413.47 C 358.90 416.80 354.12 416.81 350.19 413.50Z"/></g>
<g fill="#A08766FE">
<path d="M 268.39 440.02 C 262.20 437.52 260.18 429.32 264.48 424.21 C 270.72 416.80 282.00 420.87 282.00 430.53 C 282.00 435.18 280.64 437.62 277.02 439.49 C 273.79 441.16 271.55 441.30 268.39 440.02Z"/></g>
<g fill="#A08766FE">
<path d="M 356.31 453.56 C 349.92 450.73 348.30 441.88 353.31 437.18 C 358.57 432.23 366.85 434.00 369.63 440.65 C 373.18 449.16 364.78 457.30 356.31 453.56Z"/></g>
<g fill="#A08766FE">
<path d="M 498.19 70.50 C 494.58 67.47 493.55 63.90 495.01 59.48 C 496.36 55.37 499.83 53.00 504.50 53.00 C 506.46 53.00 509.16 53.71 510.48 54.58 C 513.39 56.48 515.34 61.82 514.44 65.40 C 513.48 69.19 508.50 73.00 504.50 73.00 C 502.39 73.00 500.06 72.08 498.19 70.50Z"/></g>
<g fill="#A08766FE">
<path d="M 390.33 71.56 C 386.58 69.91 384.80 66.99 384.80 62.50 C 384.80 58.12 386.44 55.34 390.15 53.42 C 396.05 50.37 403.24 53.92 404.56 60.55 C 406.15 68.52 397.90 74.91 390.33 71.56Z"/></g>
<g fill="#A08766FE">
<path d="M 476.00 80.29 C 473.02 79.20 470.02 75.61 469.42 72.43 C 468.62 68.14 470.65 64.10 474.82 61.66 C 481.28 57.91 489.20 62.69 489.20 70.36 C 489.20 75.08 487.43 77.92 483.45 79.58 C 479.90 81.07 478.48 81.20 476.00 80.29Z"/></g>
<g fill="#A08766FE">
<path d="M 202.35 93.13 C 200.47 91.95 198.73 89.71 198.02 87.57 C 197.02 84.53 197.12 83.43 198.67 80.26 C 202.46 72.56 212.94 72.60 216.62 80.34 C 220.90 89.31 210.76 98.39 202.35 93.13Z"/></g>
<g fill="#A08766FE">
<path d="M 430.00 110.34 C 424.47 108.15 422.03 102.25 424.36 96.68 C 426.07 92.58 428.88 90.80 433.64 90.80 C 438.24 90.80 441.58 93.20 443.01 97.52 C 444.33 101.54 443.24 105.57 440.03 108.47 C 438.09 110.23 432.40 111.29 430.00 110.34Z"/></g>
<g fill="#A08766FE">
<path d="M 394.23 112.00 C 383.48 105.44 391.66 89.49 403.28 94.34 C 407.38 96.06 409.20 98.87 409.20 103.50 C 409.20 108.08 407.39 110.94 403.45 112.58 C 399.03 114.43 398.13 114.37 394.23 112.00Z"/></g>
<g fill="#A08766FE">
<path d="M 496.92 129.08 C 493.09 125.24 492.87 119.42 496.41 115.31 C 498.48 112.90 499.57 112.50 504.00 112.50 C 508.43 112.50 509.52 112.90 511.59 115.31 C 519.99 125.07 506.03 138.18 496.92 129.08Z"/></g>
<g fill="#A08766FE">
<path d="M 474.01 167.25 C 469.72 165.09 467.78 161.57 468.43 157.11 C 469.44 150.13 476.72 146.25 482.85 149.42 C 486.56 151.34 488.20 154.12 488.20 158.50 C 488.20 163.08 486.39 165.94 482.45 167.58 C 478.21 169.36 478.22 169.36 474.01 167.25Z"/></g>
<g fill="#A08766FE">
<path d="M 259.19 183.50 C 255.58 180.47 254.55 176.90 256.01 172.48 C 257.36 168.37 260.83 166.00 265.50 166.00 C 270.17 166.00 273.64 168.37 274.99 172.48 C 276.45 176.90 275.42 180.47 271.81 183.50 C 267.90 186.80 263.10 186.80 259.19 183.50Z"/></g>
<g fill="#A08766FE">
<path d="M 391.19 206.50 C 387.58 203.47 386.55 199.90 388.01 195.48 C 389.36 191.37 392.83 189.00 397.50 189.00 C 402.17 189.00 405.64 191.37 406.99 195.48 C 408.45 199.90 407.42 203.47 403.81 206.50 C 399.90 209.80 395.10 209.80 391.19 206.50Z"/></g>
<g fill="#A08766FE">
<path d="M 286.33 210.58 C 282.49 208.86 281.00 206.32 281.00 201.50 C 281.00 196.54 282.52 194.10 286.68 192.36 C 293.87 189.35 300.50 193.77 300.50 201.56 C 300.50 209.20 293.38 213.73 286.33 210.58Z"/></g>
<g fill="#A08766FE">
<path d="M 318.00 215.90 C 316.62 215.36 314.72 213.92 313.77 212.71 C 311.82 210.22 311.45 203.89 313.08 200.85 C 314.56 198.09 320.53 195.74 324.08 196.52 C 328.10 197.40 332.00 202.35 332.00 206.56 C 332.00 213.12 324.16 218.35 318.00 215.90Z"/></g>
<g fill="#A08766FE">
<path d="M 576.00 226.78 C 574.62 226.07 572.68 223.80 571.67 221.75 C 568.32 214.90 572.73 207.80 580.36 207.80 C 584.88 207.80 587.64 209.40 589.58 213.15 C 593.91 221.53 584.37 231.10 576.00 226.78Z"/></g>
<g fill="#A08766FE">
<path d="M 160.33 234.58 C 156.50 232.87 155.00 230.32 155.00 225.53 C 155.00 220.97 157.29 217.44 161.12 216.11 C 171.16 212.61 179.31 224.23 172.25 231.99 C 168.97 235.59 164.67 236.52 160.33 234.58Z"/></g>
<g fill="#A08766FE">
<path d="M 295.39 236.02 C 289.19 233.52 287.18 225.32 291.50 220.19 C 294.53 216.58 298.10 215.55 302.52 217.01 C 306.63 218.36 309.00 221.83 309.00 226.50 C 309.00 231.07 306.70 234.56 302.78 235.93 C 299.21 237.17 298.27 237.18 295.39 236.02Z"/></g>
<g fill="#A08766FE">
<path d="M 391.78 237.49 C 388.27 235.53 387.00 233.07 387.00 228.29 C 387.00 223.44 389.06 220.47 393.42 219.03 C 396.09 218.14 397.55 218.20 400.16 219.30 C 404.56 221.13 406.07 223.10 406.70 227.82 C 407.14 231.11 406.78 232.21 404.36 234.89 C 400.93 238.70 395.82 239.76 391.78 237.49Z"/></g>
<g fill="#A08766FE">
<path d="M 267.39 244.02 C 261.19 241.52 259.18 233.32 263.50 228.19 C 266.53 224.58 270.10 223.55 274.52 225.01 C 278.63 226.36 281.00 229.83 281.00 234.50 C 281.00 239.07 278.70 242.56 274.78 243.93 C 271.21 245.17 270.27 245.18 267.39 244.02Z"/></g>
<g fill="#A08766FE">
<path d="M 368.39 249.02 C 362.19 246.52 360.18 238.32 364.50 233.19 C 367.53 229.58 371.10 228.55 375.52 230.01 C 379.63 231.36 382.00 234.83 382.00 239.50 C 382.00 244.07 379.70 247.56 375.78 248.93 C 372.21 250.17 371.27 250.18 368.39 249.02Z"/></g>
<g fill="#A08766FE">
<path d="M 313.00 254.78 C 311.62 254.07 309.68 251.80 308.67 249.75 C 305.32 242.90 309.73 235.80 317.36 235.80 C 321.88 235.80 324.64 237.40 326.58 241.15 C 330.91 249.53 321.37 259.10 313.00 254.78Z"/></g>
<g fill="#A08766FE">
<path d="M 586.50 271.05 C 577.70 267.45 578.79 253.52 588.02 251.50 C 591.47 250.74 597.47 253.13 598.92 255.85 C 599.51 256.96 600.00 259.50 600.00 261.50 C 600.00 266.42 598.48 268.90 594.45 270.58 C 590.67 272.17 589.40 272.24 586.50 271.05Z"/></g>
<g fill="#A08766FE">
<path d="M 505.39 279.02 C 502.14 277.71 499.00 273.07 499.00 269.59 C 499.00 265.48 501.43 262.14 505.72 260.35 C 512.47 257.52 519.00 262.04 519.00 269.53 C 519.00 274.18 517.64 276.62 514.02 278.49 C 510.79 280.16 508.55 280.30 505.39 279.02Z"/></g>
<g fill="#A08766FE">
<path d="M 331.39 285.02 C 325.19 282.52 323.18 274.32 327.50 269.19 C 330.53 265.58 334.10 264.55 338.52 266.01 C 342.63 267.36 345.00 270.83 345.00 275.50 C 345.00 280.07 342.70 283.56 338.78 284.93 C 335.21 286.17 334.27 286.18 331.39 285.02Z"/></g>
<g fill="#A08766FE">
<path d="M 603.01 290.25 C 598.72 288.09 596.78 284.57 597.43 280.11 C 598.44 273.13 605.72 269.25 611.85 272.42 C 615.56 274.34 617.20 277.12 617.20 281.50 C 617.20 286.08 615.39 288.94 611.45 290.58 C 607.21 292.36 607.22 292.36 603.01 290.25Z"/></g>
<g fill="#A08766FE">
<path d="M 355.92 292.08 C 351.75 287.91 351.80 282.04 356.05 277.80 C 358.78 275.07 359.57 274.80 363.66 275.27 C 369.52 275.93 372.07 278.48 372.73 284.34 C 373.20 288.43 372.93 289.22 370.20 291.95 C 365.96 296.20 360.09 296.25 355.92 292.08Z"/></g>
<g fill="#A08766FE">
<path d="M 237.21 330.52 C 229.99 324.45 233.95 313.00 243.25 313.00 C 248.23 313.00 250.59 314.30 252.58 318.15 C 257.55 327.76 245.47 337.47 237.21 330.52Z"/></g>
<g fill="#A08766FE">
<path d="M 597.00 340.27 C 588.32 335.87 589.93 323.81 599.52 321.41 C 603.35 320.44 608.90 323.53 610.59 327.55 C 614.29 336.41 605.54 344.60 597.00 340.27Z"/></g>
<g fill="#A08766FE">
<path d="M 478.00 347.34 C 472.36 345.11 469.72 338.38 472.42 333.15 C 474.34 329.44 477.12 327.80 481.50 327.80 C 486.11 327.80 488.94 329.62 490.63 333.67 C 492.31 337.68 491.26 342.55 488.09 345.42 C 486.10 347.22 480.42 348.30 478.00 347.34Z"/></g>
<g fill="#A08766FE">
<path d="M 295.38 365.14 C 285.50 358.95 292.54 343.38 303.57 347.02 C 308.26 348.57 311.28 353.27 310.58 357.95 C 309.50 365.17 301.48 368.96 295.38 365.14Z"/></g>
<g fill="#A08766FE">
<path d="M 515.50 369.10 C 512.92 367.99 510.42 365.10 509.55 362.23 C 508.62 359.18 510.66 353.35 513.30 351.50 C 515.80 349.75 522.24 349.52 525.15 351.08 C 527.87 352.53 530.26 358.53 529.50 361.98 C 528.28 367.55 520.76 371.37 515.50 369.10Z"/></g>
<g fill="#A08766FE">
<path d="M 242.96 386.62 C 238.17 385.07 235.36 379.46 236.96 374.63 C 238.61 369.63 241.47 367.50 246.52 367.50 C 254.30 367.50 259.09 375.06 255.60 381.82 C 253.09 386.65 248.49 388.41 242.96 386.62Z"/></g>
<g fill="#A08766FE">
<path d="M 494.00 402.93 C 488.39 400.65 486.14 392.77 489.58 387.52 C 491.48 384.61 496.82 382.66 500.40 383.56 C 504.22 384.52 508.00 389.49 508.00 393.56 C 508.00 400.23 500.20 405.46 494.00 402.93Z"/></g>
<g fill="#A08766FE">
<path d="M 435.01 428.25 C 430.72 426.09 428.78 422.57 429.43 418.11 C 430.44 411.13 437.72 407.25 443.85 410.42 C 447.56 412.34 449.20 415.12 449.20 419.50 C 449.20 424.08 447.39 426.94 443.45 428.58 C 439.21 430.36 439.22 430.36 435.01 428.25Z"/></g>
<g fill="#A08766FE">
<path d="M 463.33 431.58 C 459.54 429.89 457.80 426.98 457.80 422.36 C 457.80 417.61 460.31 414.29 464.92 412.91 C 468.34 411.88 469.28 411.98 472.18 413.66 C 483.62 420.33 475.40 436.98 463.33 431.58Z"/></g>
<g fill="#A08766FE">
<path d="M 336.00 470.78 C 334.62 470.07 332.68 467.80 331.67 465.75 C 328.32 458.90 332.73 451.80 340.36 451.80 C 344.88 451.80 347.64 453.40 349.58 457.15 C 353.91 465.53 344.37 475.10 336.00 470.78Z"/></g>
<g fill="#A08766FE">
<path d="M 428.11 35.44 C 424.28 32.22 423.23 27.40 425.42 23.15 C 427.41 19.30 429.77 18.00 434.75 18.00 C 441.48 18.00 446.05 24.28 443.96 30.63 C 441.58 37.84 433.78 40.21 428.11 35.44Z"/></g>
<g fill="#A08766FE">
<path d="M 289.76 96.43 C 286.87 94.86 284.00 90.31 284.00 87.30 C 284.01 83.95 287.75 79.24 291.34 78.05 C 302.54 74.36 309.72 89.93 299.65 96.07 C 295.91 98.35 293.46 98.44 289.76 96.43Z"/></g>
<g fill="#A08766FE">
<path d="M 541.35 97.07 C 531.28 90.93 538.46 75.36 549.66 79.05 C 553.25 80.24 556.99 84.95 557.00 88.30 C 557.00 91.41 554.08 95.91 551.03 97.48 C 547.18 99.48 545.16 99.39 541.35 97.07Z"/></g>
<g fill="#A08766FE">
<path d="M 314.92 98.08 C 308.48 91.64 312.89 81.00 322.00 81.00 C 330.03 81.00 334.31 88.64 330.45 96.09 C 327.54 101.72 319.59 102.74 314.92 98.08Z"/></g>
<g fill="#A08766FE">
<path d="M 382.39 144.02 C 376.17 141.51 374.18 133.32 378.53 128.15 C 384.61 120.93 396.00 124.89 396.00 134.22 C 396.00 139.05 393.77 142.54 389.78 143.93 C 386.21 145.17 385.27 145.18 382.39 144.02Z"/></g>
<g fill="#A08766FE">
<path d="M 532.69 155.98 C 528.66 154.77 527.17 153.26 526.06 149.26 C 523.29 139.21 535.77 131.81 542.82 139.31 C 547.72 144.53 546.00 152.85 539.47 155.58 C 537.59 156.36 535.94 156.96 535.78 156.91 C 535.63 156.87 534.23 156.45 532.69 155.98Z"/></g>
<g fill="#A08766FE">
<path d="M 389.92 168.08 C 382.04 160.19 390.68 147.73 401.06 152.02 C 405.11 153.70 407.00 156.65 407.00 161.30 C 407.00 166.83 402.70 171.00 397.00 171.00 C 393.74 171.00 392.22 170.37 389.92 168.08Z"/></g>
<g fill="#A08766FE">
<path d="M 556.78 187.44 C 553.27 185.54 552.00 183.08 552.00 178.20 C 552.00 171.16 558.96 166.70 565.62 169.49 C 572.76 172.47 574.16 180.04 568.60 185.60 C 564.83 189.37 561.33 189.92 556.78 187.44Z"/></g>
<g fill="#A08766FE">
<path d="M 315.38 189.56 C 308.78 186.69 307.01 179.52 311.56 174.11 C 314.78 170.28 319.60 169.23 323.85 171.42 C 327.70 173.41 329.00 175.77 329.00 180.75 C 329.00 185.00 326.52 188.47 322.34 190.06 C 319.27 191.23 319.19 191.22 315.38 189.56Z"/></g>
<g fill="#A08766FE">
<path d="M 215.00 209.34 C 209.47 207.15 207.03 201.25 209.36 195.68 C 211.06 191.62 213.88 189.80 218.50 189.80 C 223.11 189.80 225.94 191.62 227.63 195.67 C 229.31 199.68 228.26 204.55 225.09 207.42 C 223.10 209.22 217.42 210.30 215.00 209.34Z"/></g>
<g fill="#A08766FE">
<path d="M 344.01 209.25 C 339.72 207.09 337.78 203.57 338.43 199.11 C 339.43 192.22 345.84 188.65 352.32 191.36 C 356.38 193.06 358.20 195.88 358.20 200.50 C 358.20 205.08 356.39 207.94 352.45 209.58 C 348.21 211.36 348.22 211.36 344.01 209.25Z"/></g>
<g fill="#A08766FE">
<path d="M 143.75 212.92 C 140.89 211.25 138.75 206.13 139.43 202.54 C 140.34 197.67 144.29 194.50 149.43 194.50 C 154.34 194.50 156.74 196.14 158.70 200.84 C 160.40 204.88 159.04 210.16 155.70 212.50 C 153.26 214.20 146.37 214.45 143.75 212.92Z"/></g>
<g fill="#A08766FE">
<path d="M 450.13 216.90 C 445.08 212.20 445.09 205.78 450.15 201.53 C 454.10 198.20 458.88 198.19 462.81 201.50 C 464.45 202.87 466.08 205.17 466.44 206.60 C 467.34 210.18 465.39 215.52 462.48 217.42 C 458.99 219.71 452.86 219.45 450.13 216.90Z"/></g>
<g fill="#A08766FE">
<path d="M 448.11 289.44 C 444.28 286.22 443.23 281.40 445.42 277.15 C 447.41 273.30 449.77 272.00 454.75 272.00 C 461.48 272.00 466.05 278.28 463.96 284.63 C 461.58 291.84 453.78 294.21 448.11 289.44Z"/></g>
<g fill="#A08766FE">
<path d="M 395.92 300.08 C 388.04 292.19 396.68 279.73 407.06 284.02 C 411.11 285.70 413.00 288.65 413.00 293.30 C 413.00 298.83 408.70 303.00 403.00 303.00 C 399.74 303.00 398.22 302.37 395.92 300.08Z"/></g>
<g fill="#A08766FE">
<path d="M 162.00 311.93 C 153.54 308.48 154.04 296.22 162.77 292.90 C 168.76 290.62 176.00 295.90 176.00 302.56 C 176.00 309.23 168.20 314.46 162.00 311.93Z"/></g>
<g fill="#A08766FE">
<path d="M 549.35 316.07 C 539.28 309.93 546.46 294.36 557.66 298.05 C 561.25 299.24 564.99 303.95 565.00 307.30 C 565.00 310.41 562.08 314.91 559.03 316.48 C 555.18 318.48 553.16 318.39 549.35 316.07Z"/></g>
<g fill="#A08766FE">
<path d="M 370.38 317.56 C 363.78 314.69 362.01 307.52 366.56 302.11 C 369.78 298.28 374.60 297.23 378.85 299.42 C 382.70 301.41 384.00 303.77 384.00 308.75 C 384.00 313.00 381.52 316.47 377.34 318.06 C 374.27 319.23 374.19 319.22 370.38 317.56Z"/></g>
<g fill="#A08766FE">
<path d="M 393.76 330.43 C 390.87 328.86 388.00 324.31 388.00 321.30 C 388.01 317.95 391.75 313.24 395.34 312.05 C 406.54 308.36 413.72 323.93 403.65 330.07 C 399.91 332.35 397.46 332.44 393.76 330.43Z"/></g>
<g fill="#A08766FE">
<path d="M 413.11 354.60 C 407.48 351.49 406.37 343.86 410.82 338.88 C 416.89 332.08 428.03 336.55 427.98 345.77 C 427.93 353.54 419.85 358.34 413.11 354.60Z"/></g>
<g fill="#A08766FE">
<path d="M 460.13 373.90 C 455.16 369.27 455.41 362.18 460.71 358.02 C 468.77 351.67 480.33 361.65 475.58 370.85 C 473.59 374.70 471.23 376.00 466.25 376.00 C 463.70 376.00 461.61 375.28 460.13 373.90Z"/></g>
<g fill="#A08766FE">
<path d="M 415.38 390.56 C 408.78 387.69 407.01 380.52 411.56 375.11 C 414.78 371.28 419.60 370.23 423.85 372.42 C 427.70 374.41 429.00 376.77 429.00 381.75 C 429.00 386.00 426.52 389.47 422.34 391.06 C 419.27 392.23 419.19 392.22 415.38 390.56Z"/></g>
<g fill="#A08766FE">
<path d="M 300.67 389.96 C 295.87 386.18 296.25 377.04 301.36 373.46 C 302.51 372.66 305.18 372.00 307.30 372.00 C 312.83 372.00 317.00 376.30 317.00 382.00 C 317.00 390.42 307.28 395.16 300.67 389.96Z"/></g>
<g fill="#A08766FE">
<path d="M 251.78 413.49 C 248.27 411.53 247.00 409.07 247.00 404.29 C 247.00 399.41 249.06 396.46 253.51 395.00 C 260.54 392.68 267.95 399.15 266.58 406.43 C 265.35 412.97 257.52 416.71 251.78 413.49Z"/></g>
<g fill="#A08766FE">
<path d="M 198.75 415.92 C 197.79 415.36 196.29 413.52 195.41 411.83 C 190.45 402.24 202.54 392.54 210.79 399.48 C 218.38 405.87 213.84 417.07 203.70 416.97 C 201.94 416.95 199.71 416.48 198.75 415.92Z"/></g>
<g fill="#A08766FE">
<path d="M 291.78 429.49 C 288.32 427.55 287.00 425.08 287.00 420.53 C 287.00 413.11 293.53 408.52 300.16 411.30 C 304.56 413.13 306.07 415.10 306.70 419.82 C 307.14 423.11 306.78 424.21 304.36 426.89 C 300.93 430.70 295.82 431.76 291.78 429.49Z"/></g>
<g fill="#A08766FE">
<path d="M 486.78 454.50 C 477.95 449.53 481.78 436.00 492.00 436.00 C 504.42 436.00 505.81 454.18 493.50 455.58 C 490.99 455.86 488.48 455.46 486.78 454.50Z"/></g>
<g fill="#A08766FE">
<path d="M 400.12 20.37 C 392.10 14.76 395.63 2.00 405.20 2.00 C 410.23 2.00 412.58 3.29 414.58 7.15 C 419.18 16.05 408.24 26.06 400.12 20.37Z"/></g>
<g fill="#A08766FE">
<path d="M 455.39 57.02 C 449.82 54.77 447.30 46.88 450.63 42.12 C 456.24 34.10 469.00 37.63 469.00 47.20 C 469.00 52.17 467.71 54.58 464.02 56.49 C 460.79 58.16 458.55 58.30 455.39 57.02Z"/></g>
<g fill="#A08766FE">
<path d="M 325.26 73.88 C 321.29 72.74 318.80 69.18 318.80 64.64 C 318.80 60.12 320.40 57.36 324.15 55.42 C 332.74 50.98 341.99 60.32 337.53 68.94 C 336.57 70.80 334.44 72.76 332.47 73.58 C 330.59 74.36 328.94 74.96 328.78 74.91 C 328.63 74.86 327.04 74.40 325.26 73.88Z"/></g>
<g fill="#A08766FE">
<path d="M 235.28 81.22 C 231.88 80.68 228.00 75.43 228.00 71.36 C 228.00 66.82 229.38 64.37 232.98 62.51 C 240.38 58.69 248.00 63.45 248.00 71.89 C 248.00 77.41 241.45 82.21 235.28 81.22Z"/></g>
<g fill="#A08766FE">
<path d="M 449.15 90.47 C 445.30 87.23 444.37 83.13 446.48 78.69 C 450.29 70.65 462.25 71.16 464.99 79.48 C 466.45 83.90 465.42 87.47 461.81 90.50 C 457.88 93.81 453.10 93.80 449.15 90.47Z"/></g>
<g fill="#A08766FE">
<path d="M 374.12 94.37 C 366.10 88.76 369.63 76.00 379.20 76.00 C 384.23 76.00 386.58 77.29 388.58 81.15 C 393.18 90.05 382.24 100.06 374.12 94.37Z"/></g>
<g fill="#A08766FE">
<path d="M 364.38 123.46 C 356.63 119.53 357.34 107.69 365.48 105.01 C 369.90 103.55 373.47 104.58 376.50 108.19 C 379.93 112.25 379.83 117.06 376.25 120.99 C 372.89 124.68 368.57 125.58 364.38 123.46Z"/></g>
<g fill="#A08766FE">
<path d="M 289.78 124.44 C 286.45 122.64 285.00 120.10 285.00 116.11 C 285.00 110.39 287.24 107.55 293.31 105.60 C 295.80 104.80 301.40 107.31 303.37 110.12 C 306.13 114.06 305.46 118.74 301.60 122.60 C 297.83 126.37 294.33 126.92 289.78 124.44Z"/></g>
<g fill="#A08766FE">
<path d="M 315.78 129.49 C 312.32 127.55 311.00 125.08 311.00 120.53 C 311.00 113.17 317.70 108.59 324.39 111.39 C 328.56 113.13 330.08 115.16 330.70 119.82 C 331.14 123.11 330.78 124.21 328.36 126.89 C 324.93 130.70 319.82 131.76 315.78 129.49Z"/></g>
<g fill="#A08766FE">
<path d="M 442.28 134.30 C 436.84 133.24 433.18 124.27 436.03 118.94 C 437.27 116.64 442.07 114.00 445.05 114.00 C 452.59 114.00 457.68 123.73 453.37 129.88 C 452.04 131.79 445.85 135.38 444.78 134.86 C 444.63 134.79 443.50 134.53 442.28 134.30Z"/></g>
<g fill="#A08766FE">
<path d="M 415.13 158.90 C 410.19 154.31 410.22 147.67 415.21 143.48 C 419.10 140.20 423.91 140.21 427.81 143.50 C 429.45 144.87 431.08 147.17 431.44 148.60 C 432.34 152.18 430.39 157.52 427.48 159.42 C 423.99 161.71 417.86 161.45 415.13 158.90Z"/></g>
<g fill="#A08766FE">
<path d="M 368.38 220.54 C 358.23 216.20 361.14 201.00 372.11 201.00 C 380.63 201.00 385.13 211.65 379.25 217.89 C 375.88 221.47 372.49 222.29 368.38 220.54Z"/></g>
<g fill="#A08766FE">
<path d="M 192.40 226.60 C 188.34 222.54 187.84 217.74 191.06 213.65 C 196.93 206.19 209.00 209.93 209.00 219.20 C 209.00 224.17 207.71 226.58 204.02 228.49 C 199.36 230.90 196.18 230.38 192.40 226.60Z"/></g>
<g fill="#A08766FE">
<path d="M 541.39 241.02 C 535.82 238.77 533.30 230.88 536.63 226.12 C 542.24 218.10 555.00 221.63 555.00 231.20 C 555.00 236.17 553.71 238.58 550.02 240.49 C 546.79 242.16 544.55 242.30 541.39 241.02Z"/></g>
<g fill="#A08766FE">
<path d="M 493.38 251.43 C 491.67 250.58 489.76 248.76 489.13 247.39 C 483.97 236.06 497.51 226.69 505.44 236.11 C 512.37 244.34 503.02 256.22 493.38 251.43Z"/></g>
<g fill="#A08766FE">
<path d="M 564.38 253.14 C 555.85 247.80 559.38 234.80 569.36 234.80 C 573.88 234.80 576.64 236.40 578.58 240.15 C 583.19 249.06 572.90 258.48 564.38 253.14Z"/></g>
<g fill="#A08766FE">
<path d="M 465.92 263.08 C 459.48 256.64 463.89 246.00 473.00 246.00 C 478.26 246.00 483.00 250.21 483.00 254.88 C 483.00 264.63 472.52 269.67 465.92 263.08Z"/></g>
<g fill="#A08766FE">
<path d="M 548.75 276.92 C 546.58 275.66 544.00 270.81 544.00 268.00 C 544.00 259.31 554.93 254.78 561.08 260.92 C 565.46 265.30 565.40 271.11 560.93 275.25 C 557.78 278.17 552.21 278.94 548.75 276.92Z"/></g>
<g fill="#A08766FE">
<path d="M 301.30 280.23 C 296.16 276.19 296.09 268.79 301.15 264.53 C 305.12 261.19 309.88 261.19 313.85 264.53 C 317.70 267.77 318.63 271.87 316.52 276.31 C 313.89 281.85 305.96 283.89 301.30 280.23Z"/></g>
<g fill="#A08766FE">
<path d="M 527.92 294.08 C 525.94 292.09 525.00 290.15 525.00 288.03 C 525.00 278.37 535.52 273.37 542.08 279.92 C 548.52 286.36 544.11 297.00 535.00 297.00 C 531.74 297.00 530.22 296.37 527.92 294.08Z"/></g>
<g fill="#A08766FE">
<path d="M 308.28 313.27 C 305.10 312.69 301.00 307.40 301.00 303.87 C 301.00 297.92 305.52 293.00 311.00 293.00 C 319.55 293.00 324.12 303.65 318.25 309.89 C 315.43 312.88 312.19 313.98 308.28 313.27Z"/></g>
<g fill="#A08766FE">
<path d="M 457.33 317.30 C 453.39 316.54 450.00 312.14 450.00 307.80 C 450.00 302.77 451.29 300.42 455.15 298.42 C 464.05 293.82 474.06 304.76 468.37 312.88 C 467.04 314.79 460.85 318.38 459.78 317.86 C 459.63 317.79 458.52 317.54 457.33 317.30Z"/></g>
<g fill="#A08766FE">
<path d="M 183.15 321.47 C 179.30 318.23 178.37 314.13 180.48 309.69 C 184.29 301.65 196.25 302.16 198.99 310.48 C 200.45 314.90 199.42 318.47 195.81 321.50 C 191.88 324.81 187.10 324.80 183.15 321.47Z"/></g>
<g fill="#A08766FE">
<path d="M 268.20 325.51 C 259.20 317.94 268.50 304.17 279.29 309.09 C 282.08 310.36 285.00 314.89 285.00 317.95 C 285.00 320.93 282.36 325.73 280.06 326.97 C 276.61 328.82 271.36 328.17 268.20 325.51Z"/></g>
<g fill="#A08766FE">
<path d="M 322.20 340.51 C 313.20 332.94 322.50 319.17 333.29 324.09 C 336.08 325.36 339.00 329.89 339.00 332.95 C 339.00 335.93 336.36 340.73 334.06 341.97 C 330.61 343.82 325.36 343.17 322.20 340.51Z"/></g>
<g fill="#A08766FE">
<path d="M 540.11 356.60 C 532.79 352.55 533.55 341.76 541.38 338.49 C 545.63 336.71 549.54 337.66 552.51 341.20 C 559.74 349.78 549.89 362.02 540.11 356.60Z"/></g>
<g fill="#A08766FE">
<path d="M 225.30 416.80 C 224.09 416.22 222.41 414.27 221.56 412.48 C 216.91 402.69 228.61 393.60 236.89 400.56 C 246.38 408.54 236.59 422.26 225.30 416.80Z"/></g>
<g fill="#A08766FE">
<path d="M 426.39 454.02 C 420.82 451.77 418.30 443.88 421.63 439.12 C 427.24 431.10 440.00 434.63 440.00 444.20 C 440.00 449.17 438.71 451.58 435.02 453.49 C 431.79 455.16 429.55 455.30 426.39 454.02Z"/></g>
<g fill="#A08766FE">
<path d="M 414.28 477.30 C 413.07 477.06 410.93 475.51 409.53 473.86 C 402.36 465.34 411.37 453.57 421.53 458.19 C 426.55 460.48 428.59 468.29 425.37 472.88 C 424.04 474.79 417.85 478.38 416.78 477.86 C 416.63 477.79 415.50 477.53 414.28 477.30Z"/></g>
<g fill="#A08766FE">
<path d="M 378.92 36.08 C 376.56 33.71 376.00 32.29 376.00 28.67 C 376.00 24.88 376.48 23.77 379.08 21.59 C 382.36 18.83 387.55 18.15 391.06 20.03 C 393.32 21.24 396.00 26.05 396.00 28.90 C 396.00 37.68 385.11 42.26 378.92 36.08Z"/></g>
<g fill="#A08766FE">
<path d="M 272.38 47.54 C 265.23 44.48 263.84 36.96 269.40 31.40 C 273.18 27.62 276.36 27.10 281.02 29.51 C 286.80 32.50 287.88 39.97 283.25 44.89 C 279.88 48.47 276.49 49.29 272.38 47.54Z"/></g>
<g fill="#A08766FE">
<path d="M 337.28 50.27 C 334.10 49.69 330.00 44.40 330.00 40.87 C 330.00 33.31 335.94 28.77 343.05 30.90 C 355.25 34.55 349.89 52.57 337.28 50.27Z"/></g>
<g fill="#A08766FE">
<path d="M 405.92 50.08 C 398.85 43.00 405.40 31.54 415.44 33.42 C 426.93 35.58 424.76 53.00 413.00 53.00 C 409.74 53.00 408.22 52.37 405.92 50.08Z"/></g>
<g fill="#A08766FE">
<path d="M 361.92 56.08 C 359.63 53.78 359.00 52.26 359.00 49.00 C 359.00 45.74 359.63 44.22 361.92 41.92 C 369.00 34.85 380.46 41.40 378.58 51.44 C 377.16 59.00 367.53 61.68 361.92 56.08Z"/></g>
<g fill="#A08766FE">
<path d="M 293.75 69.92 C 292.79 69.36 291.29 67.52 290.41 65.83 C 288.20 61.55 289.29 56.78 293.24 53.46 C 295.83 51.27 297.10 50.88 300.24 51.31 C 304.81 51.92 306.87 53.45 308.56 57.50 C 311.34 64.14 306.77 71.02 299.61 70.97 C 297.35 70.95 294.71 70.48 293.75 69.92Z"/></g>
<g fill="#A08766FE">
<path d="M 350.78 81.49 C 347.26 79.52 346.00 77.07 346.00 72.20 C 346.00 65.22 352.96 60.70 359.50 63.44 C 363.56 65.13 365.08 67.19 365.70 71.82 C 366.14 75.11 365.78 76.21 363.36 78.89 C 359.93 82.70 354.82 83.76 350.78 81.49Z"/></g>
<g fill="#A08766FE">
<path d="M 235.12 132.37 C 232.12 130.27 230.04 125.25 230.71 121.74 C 231.46 117.82 236.36 114.00 240.64 114.00 C 245.18 114.00 247.63 115.38 249.49 118.98 C 251.90 123.64 251.38 126.82 247.60 130.60 C 243.74 134.46 239.06 135.13 235.12 132.37Z"/></g>
<g fill="#A08766FE">
<path d="M 411.33 135.23 C 407.45 134.61 404.00 130.17 404.00 125.80 C 404.00 120.83 405.29 118.42 408.98 116.51 C 413.68 114.08 416.82 114.62 420.73 118.53 C 423.92 121.72 424.20 122.45 423.70 126.17 C 423.40 128.44 422.31 131.13 421.29 132.16 C 419.15 134.30 414.48 135.74 411.33 135.23Z"/></g>
<g fill="#A08766FE">
<path d="M 178.01 138.25 C 171.75 135.10 170.20 128.30 174.56 123.11 C 177.78 119.28 182.60 118.23 186.85 120.42 C 190.71 122.42 192.00 124.77 192.00 129.80 C 192.00 132.71 191.32 134.41 189.36 136.36 C 187.91 137.81 186.15 139.00 185.45 139.00 C 184.74 139.00 183.56 139.23 182.83 139.50 C 182.10 139.78 179.93 139.22 178.01 138.25Z"/></g>
<g fill="#A08766FE">
<path d="M 338.75 140.92 C 336.58 139.66 334.00 134.81 334.00 132.00 C 334.00 123.31 344.93 118.78 351.08 124.92 C 353.44 127.29 354.00 128.71 354.00 132.33 C 354.00 136.12 353.52 137.23 350.92 139.41 C 347.66 142.16 342.07 142.85 338.75 140.92Z"/></g>
<g fill="#A08766FE">
<path d="M 187.50 164.15 C 182.41 162.50 180.00 159.23 180.00 154.00 C 180.00 149.76 181.46 147.33 185.15 145.42 C 194.05 140.82 204.06 151.76 198.37 159.88 C 197.06 161.76 190.96 165.32 189.78 164.90 C 189.63 164.85 188.60 164.51 187.50 164.15Z"/></g>
<g fill="#A08766FE">
<path d="M 441.36 187.01 C 435.43 184.62 434.09 175.76 438.92 170.92 C 441.22 168.63 442.74 168.00 446.00 168.00 C 449.26 168.00 450.78 168.63 453.08 170.92 C 460.99 178.84 451.93 191.27 441.36 187.01Z"/></g>
<g fill="#A08766FE">
<path d="M 415.11 190.66 C 406.20 185.52 409.75 172.00 420.00 172.00 C 432.42 172.00 433.81 190.17 421.50 191.58 C 419.12 191.85 416.53 191.48 415.11 190.66Z"/></g>
<g fill="#A08766FE">
<path d="M 522.75 208.92 C 520.58 207.66 518.00 202.81 518.00 200.00 C 518.00 191.31 528.93 186.78 535.08 192.92 C 537.44 195.29 538.00 196.71 538.00 200.33 C 538.00 204.12 537.52 205.23 534.92 207.41 C 531.66 210.16 526.07 210.85 522.75 208.92Z"/></g>
<g fill="#A08766FE">
<path d="M 259.38 215.42 C 253.40 212.47 252.22 205.02 256.90 199.79 C 259.30 197.10 260.52 196.55 264.00 196.55 C 274.66 196.55 277.85 212.42 267.88 215.89 C 263.81 217.31 263.15 217.27 259.38 215.42Z"/></g>
<g fill="#A08766FE">
<path d="M 422.92 215.08 C 416.58 208.73 420.88 198.00 429.78 198.00 C 436.37 198.00 441.18 204.18 439.57 210.59 C 437.68 218.11 428.45 220.60 422.92 215.08Z"/></g>
<g fill="#A08766FE">
<path d="M 235.78 227.44 C 230.29 224.46 229.26 217.22 233.59 212.08 C 235.77 209.48 236.88 209.00 240.67 209.00 C 244.29 209.00 245.71 209.56 248.08 211.92 C 256.34 220.18 246.13 233.06 235.78 227.44Z"/></g>
<g fill="#A08766FE">
<path d="M 245.39 259.02 C 241.43 257.42 238.76 252.89 239.31 248.71 C 239.92 244.19 241.46 242.12 245.50 240.44 C 252.04 237.70 259.00 242.22 259.00 249.20 C 259.00 254.17 257.71 256.58 254.02 258.49 C 250.79 260.16 248.55 260.30 245.39 259.02Z"/></g>
<g fill="#A08766FE">
<path d="M 613.64 258.36 C 611.60 256.33 611.00 254.74 611.00 251.42 C 611.00 245.60 614.05 242.07 619.72 241.31 C 623.59 240.79 624.25 241.05 627.60 244.40 C 630.95 247.75 631.21 248.41 630.69 252.28 C 629.93 257.95 626.40 261.00 620.58 261.00 C 617.26 261.00 615.67 260.40 613.64 258.36Z"/></g>
<g fill="#A08766FE">
<path d="M 433.39 270.02 C 430.08 268.68 427.00 264.07 427.00 260.44 C 427.00 256.50 430.84 251.51 434.60 250.56 C 445.97 247.71 452.04 264.43 441.46 269.45 C 437.83 271.17 436.48 271.27 433.39 270.02Z"/></g>
<g fill="#A08766FE">
<path d="M 375.67 272.96 C 370.52 268.90 371.34 259.43 377.09 256.45 C 384.37 252.69 392.00 257.07 392.00 265.00 C 392.00 273.42 382.28 278.16 375.67 272.96Z"/></g>
<g fill="#A08766FE">
<path d="M 167.11 280.60 C 162.31 277.95 160.80 272.22 163.51 266.98 C 166.45 261.30 173.68 260.18 178.92 264.59 C 181.52 266.77 182.00 267.88 182.00 271.67 C 182.00 279.84 174.19 284.53 167.11 280.60Z"/></g>
<g fill="#A08766FE">
<path d="M 257.59 281.92 C 253.18 276.68 254.30 269.45 259.98 266.51 C 267.48 262.63 275.00 267.44 275.00 276.12 C 275.00 280.94 270.27 285.00 264.67 285.00 C 260.88 285.00 259.77 284.52 257.59 281.92Z"/></g>
<g fill="#A08766FE">
<path d="M 189.75 293.92 C 187.58 292.66 185.00 287.81 185.00 285.00 C 185.00 276.31 195.93 271.78 202.08 277.92 C 204.44 280.29 205.00 281.71 205.00 285.33 C 205.00 289.12 204.52 290.23 201.92 292.41 C 198.66 295.16 193.07 295.85 189.75 293.92Z"/></g>
<g fill="#A08766FE">
<path d="M 215.89 302.50 C 212.00 300.39 210.43 295.84 211.90 290.95 C 214.02 283.86 222.42 281.72 228.12 286.82 C 230.75 289.16 231.27 290.36 231.27 294.00 C 231.27 301.91 223.11 306.42 215.89 302.50Z"/></g>
<g fill="#A08766FE">
<path d="M 508.00 309.73 C 504.79 308.13 501.97 302.33 502.68 298.77 C 503.57 294.34 507.66 291.00 512.20 291.00 C 517.23 291.00 519.58 292.29 521.58 296.15 C 523.77 300.40 522.72 305.22 518.89 308.44 C 515.57 311.23 511.90 311.67 508.00 309.73Z"/></g>
<g fill="#A08766FE">
<path d="M 481.30 316.23 C 476.16 312.19 476.09 304.79 481.15 300.53 C 489.38 293.60 501.07 302.72 496.45 312.47 C 493.89 317.86 485.90 319.84 481.30 316.23Z"/></g>
<g fill="#A08766FE">
<path d="M 425.39 331.02 C 424.23 330.55 422.31 328.94 421.14 327.45 C 414.75 319.33 424.06 308.09 433.47 312.55 C 441.22 316.23 440.78 328.14 432.78 330.93 C 429.21 332.17 428.27 332.18 425.39 331.02Z"/></g>
<g fill="#A08766FE">
<path d="M 561.64 337.36 C 559.60 335.33 559.00 333.74 559.00 330.42 C 559.00 324.60 562.05 321.07 567.72 320.31 C 571.59 319.79 572.25 320.05 575.60 323.40 C 578.95 326.75 579.21 327.41 578.69 331.28 C 577.93 336.95 574.40 340.00 568.58 340.00 C 565.26 340.00 563.67 339.40 561.64 337.36Z"/></g>
<g fill="#A08766FE">
<path d="M 295.75 338.92 C 293.42 337.56 291.00 332.74 291.00 329.45 C 291.00 327.75 292.27 325.53 294.53 323.27 C 297.70 320.10 298.47 319.80 302.11 320.29 C 306.94 320.94 309.74 323.23 310.83 327.42 C 312.63 334.38 308.49 340.02 301.61 339.97 C 299.35 339.95 296.71 339.48 295.75 338.92Z"/></g>
<g fill="#A08766FE">
<path d="M 210.48 358.64 C 203.10 355.33 203.23 344.02 210.69 340.48 C 215.13 338.37 219.23 339.30 222.47 343.15 C 225.93 347.25 225.84 352.04 222.25 355.99 C 219.00 359.55 214.67 360.53 210.48 358.64Z"/></g>
<g fill="#A08766FE">
<path d="M 356.28 365.27 C 353.10 364.69 349.00 359.40 349.00 355.87 C 349.00 350.89 351.57 347.21 355.95 345.90 C 363.08 343.76 369.00 348.31 369.00 355.93 C 369.00 361.57 362.44 366.39 356.28 365.27Z"/></g>
<g fill="#A08766FE">
<path d="M 434.27 366.47 C 431.10 363.30 430.80 362.53 431.29 358.89 C 431.94 354.06 434.23 351.26 438.42 350.17 C 445.27 348.40 451.00 352.51 451.00 359.20 C 451.00 364.17 449.71 366.58 446.02 368.49 C 441.32 370.92 438.18 370.38 434.27 366.47Z"/></g>
<g fill="#A08766FE">
<path d="M 328.50 370.13 C 319.18 367.21 318.17 355.48 326.86 351.03 C 332.67 348.04 341.00 353.65 341.00 360.56 C 341.00 366.57 334.08 371.87 328.50 370.13Z"/></g>
<g fill="#A08766FE">
<path d="M 336.00 393.73 C 332.79 392.13 329.97 386.33 330.68 382.77 C 331.57 378.34 335.66 375.00 340.20 375.00 C 345.23 375.00 347.58 376.29 349.58 380.15 C 351.77 384.40 350.72 389.22 346.89 392.44 C 343.57 395.23 339.90 395.67 336.00 393.73Z"/></g>
<g fill="#A08766FE">
<path d="M 518.92 393.08 C 516.63 390.78 516.00 389.26 516.00 386.00 C 516.00 374.31 532.73 372.10 535.57 383.41 C 538.05 393.30 526.09 400.24 518.92 393.08Z"/></g>
<g fill="#A08766FE">
<path d="M 467.31 404.80 C 456.30 401.95 458.70 385.00 470.11 385.00 C 478.45 385.00 482.99 395.30 477.51 401.80 C 474.68 405.17 471.90 405.99 467.31 404.80Z"/></g>
<g fill="#A08766FE">
<path d="M 387.21 406.80 C 380.31 404.96 378.05 395.49 383.27 390.27 C 388.49 385.05 397.96 387.31 399.80 394.21 C 400.75 397.79 399.79 402.64 397.71 404.71 C 395.64 406.79 390.79 407.75 387.21 406.80Z"/></g>
<g fill="#A08766FE">
<path d="M 519.92 419.08 C 513.74 412.89 518.32 402.00 527.10 402.00 C 529.95 402.00 534.76 404.68 535.97 406.94 C 537.85 410.45 537.17 415.64 534.41 418.92 C 532.23 421.52 531.12 422.00 527.33 422.00 C 523.71 422.00 522.29 421.44 519.92 419.08Z"/></g>
<g fill="#A08766FE">
<path d="M 491.75 428.92 C 489.58 427.66 487.00 422.81 487.00 420.00 C 487.00 411.31 497.93 406.78 504.08 412.92 C 506.44 415.29 507.00 416.71 507.00 420.33 C 507.00 424.12 506.52 425.23 503.92 427.41 C 500.66 430.16 495.07 430.85 491.75 428.92Z"/></g>
<g fill="#A08766FE">
<path d="M 454.19 455.50 C 444.79 447.60 454.12 434.00 465.40 439.14 C 468.71 440.65 471.33 446.23 470.50 450.02 C 470.14 451.63 468.50 454.08 466.85 455.47 C 462.90 458.80 458.12 458.81 454.19 455.50Z"/></g>
<g fill="#A08766FE">
<path d="M 290.50 464.15 C 285.41 462.50 283.00 459.23 283.00 454.00 C 283.00 449.76 284.46 447.33 288.15 445.42 C 297.05 440.82 307.06 451.76 301.37 459.88 C 300.06 461.76 293.96 465.32 292.78 464.90 C 292.63 464.85 291.60 464.51 290.50 464.15Z"/></g>
<g fill="#A08766FE">
<path d="M 379.92 465.08 C 372.85 458.00 379.40 446.54 389.44 448.42 C 400.93 450.58 398.76 468.00 387.00 468.00 C 383.74 468.00 382.22 467.37 379.92 465.08Z"/></g>
<g fill="#A08766FE">
<path d="M 445.39 481.02 C 439.17 478.51 437.18 470.32 441.53 465.15 C 444.77 461.30 448.87 460.37 453.31 462.48 C 461.04 466.14 460.75 478.15 452.88 480.89 C 449.21 482.17 448.28 482.19 445.39 481.02Z"/></g>
<g fill="#A08766FE">
<path d="M 364.31 485.99 C 363.10 485.50 361.45 484.07 360.64 482.80 C 356.08 475.68 360.23 467.00 368.20 467.00 C 373.17 467.00 375.58 468.29 377.49 471.98 C 379.90 476.64 379.38 479.82 375.60 483.60 C 372.09 487.11 368.81 487.81 364.31 485.99Z"/></g>
<g fill="#A08766FE">
<path d="M 303.78 45.44 C 300.27 43.54 299.00 41.08 299.00 36.20 C 299.00 30.60 302.74 27.00 308.58 27.00 C 314.40 27.00 317.93 30.05 318.69 35.72 C 319.21 39.57 318.94 40.26 315.73 43.47 C 311.82 47.38 308.38 47.94 303.78 45.44Z"/></g>
<g fill="#A08766FE">
<path d="M 476.79 45.10 C 474.10 42.70 473.55 41.48 473.55 38.00 C 473.55 27.58 488.01 24.17 492.45 33.54 C 494.38 37.60 494.38 38.40 492.45 42.46 C 489.55 48.58 482.09 49.84 476.79 45.10Z"/></g>
<g fill="#A08766FE">
<path d="M 514.24 97.54 C 510.28 94.22 509.20 89.45 511.42 85.15 C 513.42 81.29 515.77 80.00 520.80 80.00 C 527.49 80.00 531.60 85.73 529.83 92.58 C 528.75 96.73 525.95 99.06 521.28 99.69 C 518.09 100.12 516.84 99.73 514.24 97.54Z"/></g>
<g fill="#A08766FE">
<path d="M 260.78 98.44 C 255.29 95.46 254.26 88.22 258.59 83.08 C 263.63 77.09 274.13 79.86 275.58 87.56 C 277.26 96.52 268.76 102.77 260.78 98.44Z"/></g>
<g fill="#A08766FE">
<path d="M 232.38 106.46 C 225.04 102.74 225.22 92.02 232.69 88.48 C 237.13 86.37 241.23 87.30 244.47 91.15 C 247.93 95.25 247.84 100.04 244.25 103.99 C 240.89 107.68 236.57 108.58 232.38 106.46Z"/></g>
<g fill="#A08766FE">
<path d="M 463.89 115.50 C 458.31 112.47 457.62 103.02 462.67 99.04 C 464.37 97.71 466.75 97.00 469.55 97.00 C 473.09 97.00 474.26 97.52 476.41 100.08 C 480.82 105.32 479.70 112.55 474.02 115.49 C 470.42 117.35 467.30 117.36 463.89 115.50Z"/></g>
<g fill="#A08766FE">
<path d="M 204.36 120.01 C 201.05 118.68 199.00 114.98 199.00 110.37 C 199.00 106.92 199.54 105.72 202.08 103.59 C 207.32 99.18 214.55 100.30 217.49 105.98 C 222.13 114.96 213.82 123.83 204.36 120.01Z"/></g>
<g fill="#A08766FE">
<path d="M 263.36 126.01 C 260.13 124.71 258.00 121.01 258.00 116.70 C 258.00 105.20 275.46 103.29 277.58 114.56 C 279.17 123.08 271.47 129.28 263.36 126.01Z"/></g>
<g fill="#A08766FE">
<path d="M 523.92 125.08 C 517.70 118.86 521.88 108.00 530.49 108.00 C 532.49 108.00 535.00 108.46 536.06 109.03 C 538.32 110.24 541.00 115.05 541.00 117.90 C 541.00 126.68 530.11 131.26 523.92 125.08Z"/></g>
<g fill="#A08766FE">
<path d="M 552.11 127.60 C 543.18 122.65 546.76 109.00 557.00 109.00 C 567.35 109.00 571.09 122.80 562.02 127.49 C 558.47 129.33 555.29 129.36 552.11 127.60Z"/></g>
<g fill="#A08766FE">
<path d="M 575.92 131.08 C 569.58 124.73 573.88 114.00 582.78 114.00 C 587.28 114.00 591.51 117.20 592.57 121.41 C 595.05 131.30 583.09 138.24 575.92 131.08Z"/></g>
<g fill="#A08766FE">
<path d="M 270.78 153.44 C 267.27 151.54 266.00 149.08 266.00 144.20 C 266.00 138.60 269.74 135.00 275.58 135.00 C 281.40 135.00 284.93 138.05 285.69 143.72 C 286.21 147.57 285.94 148.26 282.73 151.47 C 278.82 155.38 275.38 155.94 270.78 153.44Z"/></g>
<g fill="#A08766FE">
<path d="M 556.75 157.92 C 554.58 156.66 552.00 151.81 552.00 149.00 C 552.00 140.31 562.93 135.78 569.08 141.92 C 575.38 148.23 571.10 159.04 562.33 158.97 C 560.22 158.95 557.71 158.48 556.75 157.92Z"/></g>
<g fill="#A08766FE">
<path d="M 500.92 156.08 C 494.70 149.86 498.88 139.00 507.49 139.00 C 509.49 139.00 512.00 139.46 513.06 140.03 C 515.32 141.24 518.00 146.05 518.00 148.90 C 518.00 157.68 507.11 162.26 500.92 156.08Z"/></g>
<g fill="#A08766FE">
<path d="M 321.89 163.55 C 316.31 160.41 315.62 151.02 320.67 147.04 C 330.02 139.69 342.49 152.50 334.75 161.51 C 331.97 164.73 325.74 165.73 321.89 163.55Z"/></g>
<g fill="#A08766FE">
<path d="M 527.92 181.08 C 525.63 178.78 525.00 177.26 525.00 174.00 C 525.00 168.68 529.20 164.00 533.97 164.00 C 542.55 164.00 547.34 171.57 543.49 179.02 C 540.44 184.92 532.78 185.93 527.92 181.08Z"/></g>
<g fill="#A08766FE">
<path d="M 287.36 183.01 C 281.57 180.67 280.08 171.62 284.69 166.80 C 286.81 164.59 288.27 164.00 291.63 164.00 C 297.39 164.00 300.93 167.07 301.69 172.72 C 302.21 176.57 301.94 177.26 298.73 180.47 C 295.09 184.11 291.86 184.83 287.36 183.01Z"/></g>
<g fill="#A08766FE">
<path d="M 499.75 183.92 C 498.79 183.36 497.29 181.52 496.41 179.83 C 494.20 175.55 495.29 170.78 499.24 167.46 C 504.75 162.82 513.02 165.45 514.83 172.42 C 516.63 179.38 512.49 185.02 505.61 184.97 C 503.35 184.95 500.71 184.48 499.75 183.92Z"/></g>
<g fill="#A08766FE">
<path d="M 160.92 184.08 C 156.07 179.22 157.08 171.56 162.98 168.51 C 170.48 164.63 178.00 169.44 178.00 178.12 C 178.00 182.79 173.26 187.00 168.00 187.00 C 164.74 187.00 163.22 186.37 160.92 184.08Z"/></g>
<g fill="#A08766FE">
<path d="M 194.92 185.08 C 192.63 182.78 192.00 181.26 192.00 178.00 C 192.00 172.68 196.20 168.00 200.97 168.00 C 209.55 168.00 214.34 175.57 210.49 183.02 C 207.44 188.92 199.78 189.93 194.92 185.08Z"/></g>
<g fill="#A08766FE">
<path d="M 371.92 187.08 C 367.07 182.22 368.08 174.56 373.98 171.51 C 381.48 167.63 389.00 172.44 389.00 181.12 C 389.00 185.79 384.26 190.00 379.00 190.00 C 375.74 190.00 374.22 189.37 371.92 187.08Z"/></g>
<g fill="#A08766FE">
<path d="M 464.92 191.08 C 460.28 186.44 461.28 179.04 466.99 175.67 C 470.48 173.60 473.25 173.56 477.02 175.51 C 482.70 178.45 483.82 185.68 479.41 190.92 C 477.23 193.52 476.12 194.00 472.33 194.00 C 468.71 194.00 467.29 193.44 464.92 191.08Z"/></g>
<g fill="#A08766FE">
<path d="M 236.36 194.01 C 233.13 192.71 231.00 189.01 231.00 184.70 C 231.00 173.20 248.46 171.29 250.58 182.56 C 252.17 191.08 244.47 197.28 236.36 194.01Z"/></g>
<g fill="#A08766FE">
<path d="M 491.42 208.86 C 488.87 207.62 486.00 202.95 486.00 200.05 C 486.00 197.07 488.64 192.27 490.94 191.03 C 494.45 189.15 499.64 189.83 502.92 192.59 C 505.52 194.77 506.00 195.88 506.00 199.67 C 506.00 207.64 498.57 212.32 491.42 208.86Z"/></g>
<g fill="#A08766FE">
<path d="M 601.92 208.08 C 599.94 206.09 599.00 204.15 599.00 202.03 C 599.00 193.45 606.57 188.66 614.02 192.51 C 623.09 197.20 619.35 211.00 609.00 211.00 C 605.74 211.00 604.22 210.37 601.92 208.08Z"/></g>
<g fill="#A08766FE">
<path d="M 552.39 216.02 C 546.17 213.51 544.18 205.32 548.53 200.15 C 551.77 196.30 555.87 195.37 560.31 197.48 C 567.86 201.06 567.95 211.90 560.46 215.45 C 556.83 217.17 555.48 217.27 552.39 216.02Z"/></g>
<g fill="#A08766FE">
<path d="M 597.11 241.60 C 588.18 236.65 591.76 223.00 602.00 223.00 C 612.35 223.00 616.09 236.80 607.02 241.49 C 603.47 243.33 600.29 243.36 597.11 241.60Z"/></g>
<g fill="#A08766FE">
<path d="M 414.92 242.08 C 408.70 235.86 412.88 225.00 421.49 225.00 C 423.49 225.00 426.00 225.46 427.06 226.03 C 429.32 227.24 432.00 232.05 432.00 234.90 C 432.00 243.68 421.11 248.26 414.92 242.08Z"/></g>
<g fill="#A08766FE">
<path d="M 448.11 247.60 C 439.18 242.65 442.76 229.00 453.00 229.00 C 463.35 229.00 467.09 242.80 458.02 247.49 C 454.47 249.33 451.29 249.36 448.11 247.60Z"/></g>
<g fill="#A08766FE">
<path d="M 176.79 251.10 C 168.09 243.33 177.63 230.23 188.40 235.14 C 190.75 236.21 194.00 241.35 194.00 244.00 C 194.00 246.65 190.75 251.79 188.40 252.86 C 184.14 254.80 180.28 254.22 176.79 251.10Z"/></g>
<g fill="#A08766FE">
<path d="M 524.50 261.79 C 519.73 259.05 518.09 253.72 520.48 248.69 C 523.45 242.43 530.86 241.11 536.21 245.90 C 538.90 248.30 539.45 249.52 539.45 253.00 C 539.45 256.48 538.90 257.70 536.21 260.10 C 532.73 263.21 528.13 263.88 524.50 261.79Z"/></g>
<g fill="#A08766FE">
<path d="M 345.89 262.55 C 340.31 259.41 339.62 250.02 344.67 246.04 C 354.02 238.69 366.49 251.50 358.75 260.51 C 355.97 263.73 349.74 264.73 345.89 262.55Z"/></g>
<g fill="#A08766FE">
<path d="M 146.75 263.92 C 144.58 262.66 142.00 257.81 142.00 255.00 C 142.00 246.31 152.93 241.78 159.08 247.92 C 165.38 254.23 161.10 265.04 152.33 264.97 C 150.22 264.95 147.71 264.48 146.75 263.92Z"/></g>
<g fill="#A08766FE">
<path d="M 278.92 264.08 C 271.76 256.91 278.70 244.95 288.59 247.43 C 290.01 247.79 292.26 249.25 293.59 250.69 C 299.35 256.90 294.65 267.00 286.00 267.00 C 282.74 267.00 281.22 266.37 278.92 264.08Z"/></g>
<g fill="#A08766FE">
<path d="M 402.92 269.08 C 396.70 262.86 400.88 252.00 409.49 252.00 C 411.49 252.00 414.00 252.46 415.06 253.03 C 417.32 254.24 420.00 259.05 420.00 261.90 C 420.00 270.68 409.11 275.26 402.92 269.08Z"/></g>
<g fill="#A08766FE">
<path d="M 225.92 277.08 C 219.70 270.86 223.88 260.00 232.49 260.00 C 234.49 260.00 237.00 260.46 238.06 261.03 C 240.32 262.24 243.00 267.05 243.00 269.90 C 243.00 278.68 232.11 283.26 225.92 277.08Z"/></g>
<g fill="#A08766FE">
<path d="M 478.15 287.47 C 474.30 284.23 473.37 280.13 475.48 275.69 C 477.19 272.09 480.50 270.00 484.50 270.00 C 490.75 270.00 495.80 276.08 494.50 282.02 C 493.61 286.06 488.67 290.00 484.50 290.00 C 482.38 290.00 480.05 289.07 478.15 287.47Z"/></g>
<g fill="#A08766FE">
<path d="M 567.27 293.47 C 564.06 290.26 563.79 289.57 564.31 285.72 C 565.07 280.05 568.60 277.00 574.42 277.00 C 580.26 277.00 584.00 280.60 584.00 286.20 C 584.00 291.17 582.71 293.58 579.02 295.49 C 574.32 297.92 571.18 297.38 567.27 293.47Z"/></g>
<g fill="#A08766FE">
<path d="M 281.11 302.60 C 272.18 297.65 275.76 284.00 286.00 284.00 C 296.35 284.00 300.09 297.80 291.02 302.49 C 287.47 304.33 284.29 304.36 281.11 302.60Z"/></g>
<g fill="#A08766FE">
<path d="M 421.92 302.08 C 419.94 300.09 419.00 298.15 419.00 296.03 C 419.00 287.45 426.57 282.66 434.02 286.51 C 443.09 291.20 439.35 305.00 429.00 305.00 C 425.74 305.00 424.22 304.37 421.92 302.08Z"/></g>
<g fill="#A08766FE">
<path d="M 246.38 306.42 C 240.45 303.49 239.22 296.02 243.82 290.88 C 246.16 288.25 247.36 287.73 251.00 287.73 C 254.64 287.73 255.84 288.25 258.18 290.88 C 262.66 295.88 261.50 303.65 255.85 306.57 C 252.37 308.38 250.29 308.34 246.38 306.42Z"/></g>
<g fill="#A08766FE">
<path d="M 331.75 310.92 C 329.58 309.66 327.00 304.81 327.00 302.00 C 327.00 293.31 337.93 288.78 344.08 294.92 C 350.38 301.23 346.10 312.04 337.33 311.97 C 335.22 311.95 332.71 311.48 331.75 310.92Z"/></g>
<g fill="#A08766FE">
<path d="M 210.30 329.80 C 209.09 329.22 207.35 327.16 206.44 325.23 C 201.62 315.07 213.77 306.36 222.22 313.91 C 230.93 321.69 220.98 334.96 210.30 329.80Z"/></g>
<g fill="#A08766FE">
<path d="M 500.53 340.73 C 496.62 336.82 496.08 333.68 498.51 328.98 C 500.42 325.29 502.83 324.00 507.80 324.00 C 513.40 324.00 517.00 327.74 517.00 333.58 C 517.00 339.40 513.95 342.93 508.28 343.69 C 504.43 344.21 503.74 343.94 500.53 340.73Z"/></g>
<g fill="#A08766FE">
<path d="M 447.92 341.08 C 445.94 339.09 445.00 337.15 445.00 335.03 C 445.00 326.45 452.57 321.66 460.02 325.51 C 469.09 330.20 465.35 344.00 455.00 344.00 C 451.74 344.00 450.22 343.37 447.92 341.08Z"/></g>
<g fill="#A08766FE">
<path d="M 157.79 342.10 C 155.10 339.70 154.55 338.48 154.55 335.00 C 154.55 331.52 155.10 330.30 157.79 327.90 C 161.96 324.17 166.69 324.02 170.81 327.50 C 178.38 333.86 174.08 345.00 164.07 345.00 C 162.13 345.00 159.86 343.95 157.79 342.10Z"/></g>
<g fill="#A08766FE">
<path d="M 185.39 354.06 C 177.48 350.72 176.95 339.15 184.54 335.55 C 188.60 333.62 189.40 333.62 193.46 335.55 C 199.48 338.41 200.85 345.94 196.25 350.99 C 193.30 354.23 188.80 355.50 185.39 354.06Z"/></g>
<g fill="#A08766FE">
<path d="M 237.11 358.60 C 228.18 353.65 231.76 340.00 242.00 340.00 C 252.35 340.00 256.09 353.80 247.02 358.49 C 243.47 360.33 240.29 360.36 237.11 358.60Z"/></g>
<g fill="#A08766FE">
<path d="M 392.75 373.92 C 391.79 373.36 390.29 371.52 389.41 369.83 C 387.20 365.55 388.29 360.78 392.24 357.46 C 397.75 352.82 406.02 355.45 407.83 362.42 C 409.63 369.38 405.49 375.02 398.61 374.97 C 396.35 374.95 393.71 374.48 392.75 373.92Z"/></g>
<g fill="#A08766FE">
<path d="M 188.78 384.44 C 179.93 379.64 183.79 366.00 194.00 366.00 C 197.26 366.00 198.78 366.63 201.08 368.92 C 209.34 377.18 199.13 390.06 188.78 384.44Z"/></g>
<g fill="#A08766FE">
<path d="M 367.36 388.01 C 364.13 386.71 362.00 383.01 362.00 378.70 C 362.00 367.20 379.46 365.29 381.58 376.56 C 383.17 385.08 375.47 391.28 367.36 388.01Z"/></g>
<g fill="#A08766FE">
<path d="M 551.30 407.80 C 549.02 406.70 546.00 401.43 546.00 398.55 C 546.00 395.65 548.77 391.43 551.47 390.19 C 555.82 388.22 559.69 388.76 563.12 391.82 C 565.75 394.16 566.27 395.36 566.27 399.00 C 566.27 402.64 565.75 403.84 563.12 406.18 C 559.76 409.18 555.40 409.78 551.30 407.80Z"/></g>
<g fill="#A08766FE">
<path d="M 314.78 414.49 C 311.26 412.52 310.00 410.07 310.00 405.20 C 310.00 398.51 315.73 394.40 322.58 396.17 C 326.74 397.25 329.06 400.06 329.70 404.78 C 330.14 408.11 329.79 409.20 327.36 411.89 C 323.93 415.70 318.82 416.76 314.78 414.49Z"/></g>
<g fill="#A08766FE">
<path d="M 408.11 419.60 C 403.31 416.95 401.80 411.22 404.51 405.98 C 409.20 396.91 423.00 400.65 423.00 411.00 C 423.00 418.84 415.03 423.44 408.11 419.60Z"/></g>
<g fill="#A08766FE">
<path d="M 371.75 431.92 C 369.42 430.56 367.00 425.74 367.00 422.45 C 367.00 420.77 368.24 418.56 370.40 416.40 C 374.93 411.87 379.85 411.70 384.08 415.92 C 388.46 420.30 388.40 426.11 383.93 430.25 C 380.78 433.17 375.21 433.94 371.75 431.92Z"/></g>
<g fill="#A08766FE">
<path d="M 332.78 435.44 C 329.27 433.54 328.00 431.08 328.00 426.20 C 328.00 420.60 331.74 417.00 337.58 417.00 C 343.40 417.00 346.93 420.05 347.69 425.72 C 348.21 429.57 347.94 430.26 344.73 433.47 C 340.82 437.38 337.38 437.94 332.78 435.44Z"/></g>
<g fill="#A08766FE">
<path d="M 239.88 443.18 C 237.25 440.84 236.73 439.64 236.73 436.00 C 236.73 428.38 244.22 423.86 251.40 427.14 C 253.89 428.27 257.00 433.39 257.00 436.35 C 257.00 444.65 246.30 448.92 239.88 443.18Z"/></g>
<g fill="#A08766FE">
<path d="M 516.92 445.08 C 509.12 437.27 518.52 424.11 528.32 429.12 C 534.41 432.23 535.86 439.64 531.41 444.92 C 529.23 447.52 528.12 448.00 524.33 448.00 C 520.71 448.00 519.29 447.44 516.92 445.08Z"/></g>
<g fill="#A08766FE">
<path d="M 310.92 482.08 C 308.94 480.09 308.00 478.15 308.00 476.03 C 308.00 467.45 315.57 462.66 323.02 466.51 C 332.09 471.20 328.35 485.00 318.00 485.00 C 314.74 485.00 313.22 484.37 310.92 482.08Z"/></g>
<g fill="#A08766FE">
<path d="M 397.28 497.32 C 396.07 497.07 393.93 495.51 392.53 493.86 C 388.13 488.63 389.67 481.33 395.78 478.43 C 405.75 473.70 414.73 485.85 407.25 493.95 C 404.43 497.01 401.18 498.10 397.28 497.32Z"/></g>
<g fill="#A08766FE">
<path d="M 469.92 139.08 C 462.12 131.27 471.52 118.11 481.32 123.12 C 490.88 128.01 487.68 142.00 477.00 142.00 C 473.74 142.00 472.22 141.37 469.92 139.08Z"/></g>
<g fill="#A08766FE">
<path d="M 242.92 157.08 C 240.63 154.78 240.00 153.26 240.00 150.00 C 240.00 139.32 253.99 136.12 258.88 145.68 C 263.89 155.48 250.73 164.88 242.92 157.08Z"/></g>
<g fill="#A08766FE">
<path d="M 358.37 159.23 C 350.17 152.59 354.46 141.00 365.12 141.00 C 369.79 141.00 374.00 145.74 374.00 151.00 C 374.00 159.08 364.41 164.13 358.37 159.23Z"/></g>
<g fill="#A08766FE">
<path d="M 217.69 168.20 C 215.74 166.17 215.00 164.35 215.00 161.63 C 215.00 156.83 216.32 154.40 219.98 152.51 C 224.68 150.08 227.82 150.62 231.73 154.53 C 234.94 157.74 235.21 158.43 234.69 162.28 C 233.93 167.93 230.39 171.00 224.63 171.00 C 221.27 171.00 219.81 170.41 217.69 168.20Z"/></g>
<g fill="#A08766FE">
<path d="M 579.88 195.18 C 577.25 192.84 576.73 191.64 576.73 188.00 C 576.73 176.73 592.86 174.12 596.08 184.86 C 599.10 194.94 587.72 202.19 579.88 195.18Z"/></g>
<g fill="#A08766FE">
<path d="M 508.92 230.08 C 501.12 222.27 510.52 209.11 520.32 214.12 C 529.88 219.01 526.68 233.00 516.00 233.00 C 512.74 233.00 511.22 232.37 508.92 230.08Z"/></g>
<g fill="#A08766FE">
<path d="M 582.92 315.08 C 580.63 312.78 580.00 311.26 580.00 308.00 C 580.00 297.32 593.99 294.12 598.88 303.68 C 603.89 313.48 590.73 322.88 582.92 315.08Z"/></g>
<g fill="#A08766FE">
<path d="M 528.39 333.06 C 523.08 330.82 520.63 324.09 523.14 318.60 C 524.65 315.29 530.23 312.67 534.02 313.50 C 538.09 314.40 542.00 319.33 542.00 323.56 C 542.00 330.03 534.17 335.50 528.39 333.06Z"/></g>
<g fill="#A08766FE">
<path d="M 346.92 333.08 C 338.76 324.91 348.54 312.09 358.85 317.43 C 367.88 322.09 364.25 336.00 354.00 336.00 C 350.74 336.00 349.22 335.37 346.92 333.08Z"/></g>
<g fill="#A08766FE">
<path d="M 395.67 443.96 C 390.55 439.92 391.24 431.06 396.95 427.69 C 400.48 425.60 403.23 425.55 407.02 427.51 C 412.70 430.45 413.82 437.68 409.41 442.92 C 407.26 445.48 406.09 446.00 402.55 446.00 C 399.75 446.00 397.37 445.29 395.67 443.96Z"/></g>
<g fill="#A08766FE">
<path d="M 313.00 452.34 C 307.36 450.11 304.72 443.38 307.42 438.15 C 309.42 434.29 311.77 433.00 316.80 433.00 C 321.16 433.00 325.44 436.31 326.20 440.27 C 326.82 443.49 325.33 448.39 323.14 450.37 C 321.11 452.21 315.45 453.31 313.00 452.34Z"/></g>
<g fill="#A08766FE">
<path d="M 263.92 351.08 C 261.63 348.78 261.00 347.26 261.00 344.00 C 261.00 340.74 261.63 339.22 263.92 336.92 C 270.07 330.78 281.00 335.31 281.00 344.00 C 281.00 352.69 270.07 357.22 263.92 351.08Z"/></g>
<g fill="#A08766FE">
<path d="M 276.75 404.92 C 274.42 403.56 272.00 398.74 272.00 395.45 C 272.00 393.75 273.27 391.53 275.53 389.27 C 278.74 386.06 279.43 385.79 283.28 386.31 C 288.97 387.07 292.00 390.60 292.00 396.47 C 292.00 400.10 291.49 401.25 288.92 403.41 C 285.66 406.16 280.07 406.85 276.75 404.92Z"/></g>
</svg>
