<?xml version="1.0" encoding="utf-8"?>
<!DOCTYPE svg PUBLIC "-//W3C//DTD SVG 20010904//EN" "http://www.w3.org/TR/2001/REC-SVG-20010904/DTD/svg10.dtd">
<svg version="1.0" xmlns="http://www.w3.org/2000/svg" width="2002pt" height="1019pt" viewBox="0 0 2002 1019" preserveAspectRatio="xMidYMid meet">
<g fill="#00A8E0FE">
<path d="M 1865.76 459.00 C 1867.10 450.85 1866.54 432.90 1864.76 426.32 C 1858.17 402.07 1840.83 384.52 1815.83 376.78 L 1808.50 374.52 L 1585.45 374.24 L 1362.41 373.96 L 1358.70 370.91 C 1355.35 368.15 1355.00 367.39 1355.00 362.96 C 1355.00 360.27 1355.65 356.59 1356.45 354.78 C 1357.24 352.98 1361.32 342.73 1365.50 332.00 C 1369.69 321.27 1373.50 311.60 1373.97 310.50 C 1374.45 309.40 1376.50 304.23 1378.54 299.00 C 1380.59 293.77 1382.82 288.15 1383.51 286.50 C 1384.20 284.85 1387.50 276.52 1390.84 268.00 C 1396.33 253.98 1411.07 216.49 1425.64 179.50 C 1428.67 171.80 1431.54 164.60 1432.01 163.50 C 1432.47 162.40 1435.91 153.86 1439.63 144.52 C 1455.51 104.75 1474.89 77.65 1505.52 52.41 C 1517.92 42.20 1543.11 27.05 1556.00 22.06 C 1557.92 21.31 1560.85 20.12 1562.50 19.41 C 1574.87 14.08 1596.80 8.81 1618.29 6.01 C 1629.72 4.53 1893.65 4.64 1903.23 6.13 C 1926.74 9.80 1946.77 19.62 1962.84 35.34 C 1979.18 51.33 1988.63 69.12 1993.52 93.11 C 1995.96 105.05 1995.17 125.12 1991.76 138.00 C 1989.82 145.30 1970.40 194.84 1953.53 235.50 C 1952.85 237.15 1950.83 242.32 1949.06 247.00 C 1947.28 251.68 1944.32 259.32 1942.48 264.00 C 1940.64 268.68 1935.69 281.50 1931.47 292.50 C 1927.25 303.50 1923.23 313.85 1922.53 315.50 C 1921.82 317.15 1919.36 323.45 1917.05 329.50 C 1914.74 335.55 1911.36 344.32 1909.53 349.00 C 1907.70 353.68 1904.17 362.68 1901.70 369.00 C 1899.22 375.32 1893.75 389.50 1889.53 400.50 C 1885.31 411.50 1881.29 421.85 1880.58 423.50 C 1879.87 425.15 1878.28 429.20 1877.05 432.50 C 1875.81 435.80 1874.45 439.40 1874.01 440.50 C 1871.64 446.48 1866.06 460.71 1865.58 462.00 C 1865.28 462.82 1865.36 461.48 1865.76 459.00Z"/></g>
<g fill="#303C46FE">
<path d="M 1135.01 760.79 C 1127.40 757.87 1119.04 749.41 1116.16 741.71 L 1114.00 735.92 L 1114.00 619.50 L 1114.00 503.08 L 1116.16 497.29 C 1119.12 489.37 1128.31 480.18 1136.00 477.47 C 1141.12 475.66 1145.08 475.50 1194.00 475.17 C 1256.81 474.76 1277.71 475.90 1300.50 480.99 C 1346.23 491.21 1379.86 515.99 1397.52 552.45 C 1403.78 565.38 1405.48 570.24 1408.08 582.67 C 1413.06 606.45 1413.16 631.02 1408.38 655.00 C 1403.21 680.88 1391.19 702.94 1372.37 721.09 C 1361.41 731.66 1353.87 736.93 1339.71 743.92 C 1325.16 751.11 1312.88 755.32 1297.13 758.50 C 1276.71 762.63 1268.92 763.00 1203.29 762.95 C 1141.91 762.90 1140.38 762.85 1135.01 760.79ZM 1258.83 727.95 C 1272.89 726.41 1284.26 723.39 1294.65 718.42 C 1304.88 713.53 1316.50 704.80 1322.43 697.54 C 1341.60 674.06 1351.62 637.21 1347.59 605.00 C 1345.34 587.06 1341.55 573.79 1334.85 560.51 C 1324.18 539.32 1308.84 525.12 1287.90 517.02 C 1272.04 510.90 1269.94 510.70 1217.75 510.25 L 1170.00 509.85 L 1170.00 618.76 C 1170.00 678.66 1170.30 727.97 1170.67 728.33 C 1171.76 729.42 1248.34 729.09 1258.83 727.95Z"/></g>
<g fill="#0054A5FE">
<path d="M 1545.37 618.23 C 1539.71 613.64 1539.75 609.56 1545.59 594.40 C 1548.11 587.86 1552.37 576.77 1555.06 569.76 C 1557.74 562.75 1560.81 554.88 1561.89 552.26 C 1562.96 549.64 1567.31 538.50 1571.56 527.50 C 1582.51 499.11 1587.55 486.09 1592.48 473.50 C 1594.85 467.45 1599.81 454.62 1603.50 445.00 C 1607.19 435.38 1610.79 426.15 1611.49 424.50 C 1612.53 422.05 1623.97 392.44 1629.45 378.00 L 1630.78 374.50 L 1719.14 374.50 L 1807.50 374.50 L 1815.30 376.76 C 1840.13 383.96 1858.01 401.73 1864.61 425.78 C 1867.07 434.73 1867.52 449.19 1865.64 458.30 C 1864.33 464.63 1855.42 489.69 1849.56 503.50 C 1848.87 505.15 1847.27 509.20 1846.02 512.50 C 1832.73 547.64 1825.13 561.20 1809.33 577.95 C 1792.15 596.17 1770.22 609.24 1746.16 615.61 C 1729.90 619.91 1727.69 620.00 1635.62 619.98 C 1553.64 619.96 1547.35 619.84 1545.37 618.23Z"/></g>
<g fill="#303C46FE">
<path d="M 144.50 768.55 C 131.56 765.37 121.05 756.03 116.00 743.22 C 114.98 740.63 112.96 735.35 111.52 731.50 C 110.08 727.65 108.50 723.60 108.03 722.50 C 107.55 721.40 105.06 714.88 102.49 708.00 C 99.92 701.12 95.43 689.20 92.51 681.50 C 89.59 673.80 85.10 661.88 82.52 655.00 C 79.95 648.12 77.47 641.60 77.01 640.50 C 76.54 639.40 73.70 631.98 70.69 624.00 C 67.67 616.02 63.16 604.10 60.66 597.50 C 58.17 590.90 53.59 578.75 50.49 570.50 C 41.22 545.85 40.76 544.62 39.47 541.50 C 38.79 539.85 37.28 535.91 36.11 532.75 C 32.17 522.02 29.71 515.51 28.47 512.50 C 27.79 510.85 26.32 507.02 25.20 504.00 C 24.09 500.98 21.15 493.21 18.69 486.75 L 14.20 475.00 L 44.62 475.00 L 75.04 475.00 L 76.15 477.75 C 78.31 483.14 78.90 484.67 84.31 499.00 C 87.32 506.98 92.27 520.02 95.31 528.00 C 98.35 535.98 104.09 551.05 108.07 561.50 C 117.85 587.19 120.05 593.06 120.96 596.00 C 121.39 597.38 123.12 601.88 124.80 606.00 C 126.49 610.12 129.27 617.33 130.98 622.00 C 132.70 626.67 135.17 633.20 136.48 636.50 C 137.78 639.80 141.32 649.02 144.33 657.00 C 147.34 664.98 152.15 677.58 155.00 685.00 C 157.85 692.42 160.86 700.52 161.69 703.00 C 163.61 708.77 165.21 710.42 168.17 709.66 C 170.59 709.05 171.77 706.58 178.98 687.00 C 180.70 682.33 183.18 675.80 184.49 672.50 C 187.05 666.05 193.93 647.99 204.50 620.00 C 215.20 591.68 219.91 579.28 225.10 565.75 L 229.99 553.01 L 228.39 548.75 C 226.71 544.27 222.32 532.88 220.97 529.50 C 220.53 528.40 217.70 520.98 214.69 513.00 C 211.67 505.02 207.18 493.21 204.70 486.74 L 200.19 474.97 L 230.77 475.24 L 261.35 475.50 L 263.10 480.00 C 265.64 486.52 282.36 530.43 287.66 544.50 C 291.89 555.73 294.17 561.75 308.57 599.75 C 311.65 607.86 315.09 616.98 316.23 620.00 C 317.36 623.02 318.87 626.85 319.57 628.50 C 320.28 630.15 322.51 636.00 324.52 641.50 C 326.54 647.00 329.02 653.52 330.03 656.00 C 331.05 658.48 333.46 664.77 335.40 670.00 C 342.64 689.55 349.10 706.31 350.10 708.18 C 350.80 709.50 351.97 710.02 353.76 709.81 C 355.99 709.55 356.78 708.46 359.10 702.50 C 363.04 692.38 371.88 669.16 379.47 649.00 C 383.09 639.38 386.50 630.46 387.04 629.19 C 387.57 627.92 389.62 622.52 391.57 617.19 C 393.53 611.86 396.19 604.80 397.48 601.50 C 398.77 598.20 401.26 591.67 403.02 587.00 C 404.77 582.33 407.27 575.80 408.56 572.50 C 410.87 566.61 418.24 547.22 429.46 517.50 C 432.58 509.25 437.09 497.32 439.48 491.00 C 441.88 484.68 444.13 478.49 444.49 477.25 C 445.13 475.02 445.31 475.00 463.60 475.00 C 480.88 475.00 482.01 475.11 481.15 476.75 C 480.64 477.71 479.53 480.52 478.68 483.00 C 477.83 485.48 475.95 490.65 474.50 494.50 C 473.05 498.35 471.03 503.75 470.02 506.50 C 464.61 521.18 447.07 567.77 438.01 591.50 C 432.59 605.71 426.53 621.76 419.50 640.50 C 416.41 648.75 412.80 658.20 411.49 661.50 C 410.18 664.80 407.70 671.33 405.99 676.00 C 404.27 680.67 401.80 687.20 400.49 690.50 C 399.18 693.80 396.70 700.33 394.99 705.00 C 393.27 709.67 391.45 714.54 390.93 715.81 C 390.41 717.08 388.39 722.48 386.43 727.81 C 378.78 748.67 376.76 752.33 369.15 759.18 C 358.89 768.40 345.30 771.97 332.19 768.90 C 320.35 766.12 308.98 757.61 304.30 748.00 C 302.10 743.50 295.34 725.91 274.48 670.50 C 271.37 662.25 266.36 648.98 263.34 641.00 C 260.31 633.02 256.91 624.02 255.77 621.00 C 254.64 617.98 253.15 614.15 252.47 612.50 C 251.79 610.85 250.68 608.04 250.00 606.25 C 248.01 601.04 248.42 600.39 240.99 620.50 C 239.97 623.25 237.58 629.55 235.68 634.50 C 228.13 654.16 219.37 677.27 206.48 711.50 C 191.74 750.63 191.29 751.59 184.11 758.30 C 173.36 768.36 158.91 772.09 144.50 768.55Z"/></g>
<g fill="#303C46FE">
<path d="M 850.09 760.74 C 843.18 758.02 835.68 750.69 832.18 743.22 L 829.50 737.50 L 829.50 619.00 C 829.50 510.45 829.64 500.21 831.17 497.00 C 836.10 486.65 845.44 478.81 855.73 476.39 C 860.37 475.30 879.48 475.03 953.25 475.02 L 1045.00 475.00 L 1045.00 493.00 L 1045.00 511.00 L 965.50 511.00 L 886.00 511.00 L 886.00 556.00 L 886.00 601.00 L 955.00 601.00 L 1024.00 601.00 L 1024.00 618.00 L 1024.00 635.00 L 955.00 635.00 L 886.00 635.00 L 886.00 681.50 L 886.00 728.00 L 965.50 728.00 L 1045.00 728.00 L 1045.00 745.50 L 1045.00 763.00 L 950.25 762.94 C 856.03 762.87 855.47 762.86 850.09 760.74Z"/></g>
<g fill="#303C46FE">
<path d="M 469.00 763.47 C 469.00 762.93 470.90 757.82 480.60 732.25 C 483.57 724.41 488.51 711.36 491.57 703.25 C 494.63 695.14 497.77 686.92 498.53 685.00 C 500.91 679.04 509.62 656.00 513.48 645.50 C 515.49 640.00 517.72 634.15 518.43 632.50 C 519.13 630.85 520.64 627.02 521.77 624.00 C 522.91 620.98 526.35 611.86 529.43 603.75 C 532.50 595.64 537.49 582.48 540.51 574.50 C 543.53 566.53 548.44 553.59 551.43 545.75 C 572.83 489.54 572.36 490.52 581.74 481.95 C 591.11 473.39 604.59 468.00 616.50 468.05 C 628.87 468.10 642.83 473.62 651.34 481.83 C 659.93 490.12 660.23 490.67 677.38 529.75 C 685.42 548.07 688.36 554.74 690.63 559.78 C 691.93 562.68 693.00 565.24 693.00 565.46 C 693.00 565.68 694.30 568.70 695.90 572.18 C 697.49 575.66 700.92 583.45 703.52 589.50 C 710.01 604.61 716.00 618.26 721.63 630.78 C 722.93 633.68 724.00 636.24 724.00 636.46 C 724.00 636.68 725.30 639.70 726.89 643.18 C 728.48 646.66 732.80 656.48 736.49 665.00 C 740.18 673.52 744.79 684.10 746.73 688.50 C 748.67 692.90 751.04 698.30 752.00 700.50 C 752.96 702.70 755.33 708.10 757.27 712.50 C 759.21 716.90 763.82 727.48 767.51 736.00 C 771.21 744.52 775.30 753.88 776.61 756.78 C 777.93 759.68 779.00 762.50 779.00 763.03 C 779.00 763.64 767.00 764.00 746.94 764.00 L 714.89 764.00 L 713.05 759.75 C 704.16 739.23 697.47 723.83 695.99 720.50 C 695.01 718.30 692.99 713.58 691.51 710.00 C 690.02 706.42 687.50 700.66 685.90 697.18 C 684.31 693.70 683.00 690.70 683.00 690.49 C 683.00 690.19 671.49 663.61 666.55 652.50 C 665.82 650.85 661.74 641.40 657.49 631.50 C 649.57 613.06 647.54 608.42 643.39 599.22 C 642.07 596.32 641.00 593.75 641.00 593.50 C 641.00 593.26 639.93 590.68 638.62 587.78 C 637.31 584.88 634.11 577.55 631.51 571.50 C 628.91 565.45 625.97 558.70 624.99 556.50 C 624.01 554.30 621.99 549.58 620.50 546.00 C 619.01 542.42 616.99 537.70 616.00 535.50 C 615.01 533.30 612.99 528.58 611.50 525.00 C 608.03 516.68 607.43 516.00 603.50 516.00 C 601.71 516.00 599.78 516.56 599.21 517.25 C 598.64 517.94 594.05 529.52 589.01 543.00 C 583.97 556.48 577.44 573.80 574.51 581.50 C 571.57 589.20 566.63 602.25 563.52 610.50 C 560.42 618.75 555.83 630.90 553.34 637.50 C 550.84 644.10 546.33 656.02 543.31 664.00 C 540.30 671.98 537.47 679.40 537.03 680.50 C 533.98 688.14 530.52 697.15 526.67 707.50 C 516.19 735.67 506.70 760.62 505.85 762.25 C 505.03 763.82 503.06 764.00 486.96 764.00 C 477.08 764.00 469.00 763.76 469.00 763.47Z"/></g>
<g fill="#7C848AFE">
<path d="M 1109.00 920.72 L 1109.00 878.44 L 1115.14 876.62 C 1132.75 871.39 1154.80 870.65 1164.69 874.94 C 1169.66 877.10 1170.10 877.13 1174.69 875.65 C 1196.40 868.66 1217.33 871.75 1226.56 883.31 C 1231.73 889.80 1231.97 891.77 1231.98 928.75 L 1232.00 963.00 L 1221.00 963.00 L 1210.00 963.00 L 1209.96 934.75 C 1209.93 919.21 1209.52 904.49 1209.05 902.03 C 1208.46 898.97 1207.20 896.68 1205.08 894.78 C 1202.19 892.20 1201.37 892.01 1193.73 892.07 C 1180.54 892.18 1181.83 888.21 1181.96 928.29 L 1182.07 963.00 L 1171.04 963.00 L 1160.00 963.00 L 1160.00 934.55 C 1160.00 893.13 1159.57 892.00 1143.95 892.00 C 1139.12 892.00 1134.45 892.27 1133.58 892.61 C 1132.18 893.14 1132.00 897.21 1132.00 928.11 L 1132.00 963.00 L 1120.50 963.00 L 1109.00 963.00 L 1109.00 920.72Z"/></g>
<g fill="#7C848AFE">
<path d="M 880.31 961.55 C 860.75 959.21 849.24 950.68 844.27 934.84 C 841.68 926.59 842.01 908.23 844.87 900.85 C 846.95 895.50 852.57 887.06 855.96 884.19 C 865.02 876.52 875.56 872.90 889.00 872.81 C 903.49 872.73 912.57 875.80 919.64 883.18 C 928.96 892.91 930.03 897.80 930.71 933.75 L 931.27 963.00 L 910.88 962.89 C 899.67 962.83 885.91 962.23 880.31 961.55ZM 906.81 925.25 C 906.52 907.58 906.36 906.21 904.00 901.50 C 900.61 894.71 895.79 892.03 887.00 892.03 C 879.14 892.03 874.13 894.49 869.43 900.66 C 862.08 910.30 862.99 929.22 871.15 936.63 C 876.63 941.59 884.82 943.79 898.31 943.92 L 907.12 944.00 L 906.81 925.25Z"/></g>
<g fill="#7C848AFE">
<path d="M 1047.00 961.91 C 1027.63 959.77 1015.27 951.86 1009.83 938.15 C 1006.51 929.77 1006.02 911.36 1008.89 902.85 C 1012.90 890.99 1020.04 882.61 1030.35 877.67 C 1037.08 874.45 1038.44 874.07 1047.16 873.11 C 1066.94 870.93 1083.13 877.43 1089.57 890.14 C 1094.45 899.76 1095.00 904.30 1095.00 934.71 L 1095.00 963.00 L 1074.75 962.87 C 1063.61 962.80 1051.12 962.37 1047.00 961.91ZM 1072.76 925.75 C 1072.34 910.36 1071.94 906.79 1070.25 903.00 C 1066.63 894.88 1061.82 892.00 1051.90 892.00 C 1038.32 892.00 1030.00 901.62 1030.00 917.32 C 1030.00 936.67 1038.95 943.69 1063.88 943.92 L 1073.27 944.00 L 1072.76 925.75Z"/></g>
<g fill="#7C848AFE">
<path d="M 1355.87 963.13 C 1344.13 960.62 1331.36 950.29 1325.60 938.64 C 1319.51 926.31 1319.56 910.63 1325.74 898.17 C 1329.11 891.38 1338.90 881.24 1345.00 878.24 C 1363.37 869.19 1384.39 872.44 1398.46 886.50 C 1405.33 893.37 1409.43 901.51 1411.17 911.75 C 1414.50 931.30 1403.85 951.24 1385.35 960.07 C 1379.70 962.77 1377.47 963.25 1369.15 963.55 C 1363.84 963.74 1357.87 963.55 1355.87 963.13ZM 1374.06 942.48 C 1380.26 940.29 1384.61 936.61 1388.01 930.69 C 1390.53 926.29 1390.98 924.43 1390.99 918.46 C 1391.00 912.28 1390.60 910.75 1387.75 905.99 C 1376.79 887.71 1348.50 891.02 1342.61 911.27 C 1340.52 918.45 1340.58 920.80 1342.99 927.25 C 1347.70 939.85 1361.86 946.78 1374.06 942.48Z"/></g>
<g fill="#7C848AFE">
<path d="M 1276.38 963.14 C 1269.70 961.94 1259.63 956.41 1255.02 951.41 C 1252.70 948.89 1249.42 943.82 1247.73 940.16 C 1245.06 934.35 1244.62 932.10 1244.22 922.48 C 1243.88 914.28 1244.19 909.81 1245.42 904.98 C 1251.15 882.54 1272.25 869.27 1296.52 872.87 C 1304.61 874.07 1317.00 878.97 1317.00 880.97 C 1317.00 881.56 1315.88 883.82 1314.50 886.00 C 1313.12 888.18 1312.00 890.24 1312.00 890.58 C 1312.00 890.91 1311.11 892.44 1310.02 893.97 L 1308.05 896.74 L 1303.27 894.40 C 1296.93 891.30 1284.77 891.05 1279.21 893.91 C 1271.51 897.87 1267.44 904.49 1266.36 914.82 C 1265.13 926.63 1269.51 936.87 1277.89 941.78 C 1284.06 945.40 1295.23 945.60 1301.94 942.23 C 1304.38 941.00 1306.70 940.00 1307.09 940.00 C 1307.49 940.00 1310.16 943.17 1313.03 947.05 C 1319.09 955.22 1319.21 954.91 1308.10 960.14 C 1302.51 962.78 1300.37 963.20 1291.10 963.52 C 1285.27 963.72 1278.64 963.55 1276.38 963.14Z"/></g>
<g fill="#7C848AFE">
<path d="M 944.19 932.25 L 944.55 901.50 L 947.66 894.86 C 954.79 879.64 967.92 873.05 991.12 873.01 C 996.97 873.01 1003.09 873.27 1004.72 873.59 L 1007.69 874.19 L 1005.27 883.34 C 1003.93 888.38 1002.52 892.83 1002.13 893.24 C 1001.74 893.65 999.87 893.54 997.97 892.99 C 987.19 889.90 975.87 893.81 970.52 902.46 L 967.50 907.34 L 967.19 935.17 L 966.88 963.00 L 955.36 963.00 L 943.83 963.00 L 944.19 932.25Z"/></g>
<g fill="#7C848AFE">
<path d="M 718.75 963.77 L 714.00 962.78 L 714.00 924.89 L 714.00 887.00 L 718.00 887.00 L 722.00 887.00 L 722.00 897.49 L 722.00 907.97 L 729.36 907.35 C 743.41 906.16 751.96 910.57 755.44 920.79 C 757.48 926.75 757.53 943.87 755.53 950.59 C 753.84 956.27 748.38 962.11 743.10 963.87 C 739.05 965.22 725.42 965.16 718.75 963.77ZM 741.00 956.25 C 746.58 953.46 748.00 949.40 748.00 936.15 C 748.00 918.21 745.00 914.42 731.06 914.78 C 726.97 914.89 723.25 915.35 722.79 915.81 C 722.33 916.27 722.08 925.61 722.23 936.57 L 722.50 956.50 L 726.00 957.12 C 732.59 958.28 737.50 958.00 741.00 956.25Z"/></g>
<g fill="#7C848AFE">
<path d="M 770.00 984.11 C 768.13 983.60 767.42 982.65 767.20 980.36 L 766.90 977.29 L 774.23 977.76 C 781.03 978.20 781.79 978.04 784.67 975.62 C 787.36 973.36 788.98 969.58 789.00 965.50 C 789.01 964.95 787.67 964.15 786.03 963.73 C 784.39 963.30 782.62 962.16 782.10 961.19 C 780.92 958.99 767.00 911.19 767.00 909.35 C 767.00 908.45 768.30 908.00 770.92 908.00 C 775.74 908.00 774.98 906.11 784.09 940.75 C 787.78 954.79 788.62 957.00 790.26 957.00 C 791.59 957.00 792.02 955.74 796.48 939.00 C 797.87 933.77 799.46 927.92 800.01 926.00 C 800.57 924.08 801.81 919.35 802.78 915.50 L 804.54 908.50 L 808.77 908.19 C 812.57 907.92 813.00 908.11 813.00 910.12 C 813.00 911.35 812.54 913.74 811.98 915.43 C 811.41 917.12 807.34 931.05 802.93 946.38 C 794.65 975.19 793.49 978.39 790.35 981.11 C 786.38 984.56 776.76 985.97 770.00 984.11Z"/></g>
</svg>
