<svg width="1013" height="285" viewBox="0 0 1013 285" fill="none" xmlns="http://www.w3.org/2000/svg">
<g clip-path="url(#clip0_755_8548)">
<path d="M101.323 6.0292H0V135.233H101.323C153.862 135.233 176.291 102.668 176.291 70.1038C176.291 37.5392 154.699 6.0292 101.323 6.0292ZM88.0663 84.4088H67.3222C67.2091 84.4088 67.1525 84.2942 67.1525 84.0649V57.1972C67.1525 56.9603 67.2091 56.8418 67.3222 56.8418H87.727C98.0877 56.8418 104.037 63.5702 104.037 70.6196C104.037 77.6689 98.0877 84.3973 88.055 84.3973L88.0663 84.4088Z" fill="#000028"/>
<path d="M273.193 0C210.803 0 179.687 29.2863 179.687 70.4591C179.687 107.677 205.521 141.445 273.193 141.445C340.866 141.445 366.689 107.677 366.689 70.4591C366.689 29.2978 335.595 0 273.193 0ZM273.363 85.7957C257.55 85.7957 251.94 78.2076 251.94 70.631C251.94 63.0544 257.381 55.6497 273.363 55.6497C289.345 55.6497 294.446 63.7422 294.446 70.4591C294.446 78.0472 288.836 85.7957 273.363 85.7957Z" fill="#000028"/>
<path d="M866.344 58.2288L934.345 54.4347C941.142 21.3658 905.943 0 850.531 0C801.069 0 759.92 16.0244 759.92 45.8265C759.92 64.7738 776.739 84.9246 841.516 82.8614H844.921C856.481 82.8614 866.513 82.8614 866.513 89.5898C866.513 95.2751 859.546 98.0261 850.701 98.0261C839.311 98.0261 830.307 93.2119 833.022 83.0448L760.429 86.8273C757.024 125.249 794.09 141.274 849.502 141.274C899.326 141.274 939.095 125.593 939.095 95.9628C939.095 70.631 921.247 59.9596 866.332 58.2288H866.344ZM864.138 58.2288C859.727 58.0568 854.954 58.0568 850.034 58.0568H845.781C836.596 58.0568 832.852 56.6699 832.852 52.3715C832.852 47.7292 838.802 44.1071 847.817 44.1071C858.686 44.1071 867.531 48.417 864.127 58.2288H864.138Z" fill="#000028"/>
<path d="M108.452 201.783L176.453 197.989C183.251 164.909 148.051 143.555 92.6396 143.555C43.1772 143.555 2.02832 159.579 2.02832 189.381C2.02832 208.328 18.8589 228.479 83.6361 226.416H87.0294C98.5891 226.416 108.622 226.416 108.622 233.144C108.622 238.83 101.654 241.581 92.8092 241.581C81.4305 241.581 72.4158 236.744 75.1304 226.588L2.53731 230.382C-0.855947 268.804 36.2097 284.828 91.6216 284.828C141.423 284.828 181.204 269.148 181.204 239.517C181.204 214.186 163.355 203.514 108.441 201.783H108.452ZM106.247 201.783C101.835 201.611 97.0621 201.611 92.1419 201.611H87.889C78.7046 201.611 74.9607 200.224 74.9607 195.926C74.9607 191.284 80.9102 187.662 89.925 187.662C100.795 187.662 109.64 191.972 106.235 201.783H106.247Z" fill="#000028"/>
<path d="M279.726 149.595V221.086C279.726 227.803 273.437 231.253 266.978 231.253C260.52 231.253 254.22 227.803 254.22 220.914V149.584H183.674V231.07C183.674 267.073 225.32 284.989 266.978 284.989C308.636 284.989 350.271 267.073 350.271 231.07V149.584H279.726V149.595Z" fill="#000028"/>
<path d="M474.969 149.595L463.239 204.901C463.239 205.245 462.9 205.245 462.9 204.901L451.171 149.595H354.949V278.799H419.546V208.328C419.546 208.156 419.885 208.156 419.885 208.328C425.495 231.757 430.936 255.37 436.557 278.799H479.9L496.55 207.812C496.55 207.641 496.889 207.641 496.889 207.812V278.799H564.89V149.595H474.957H474.969Z" fill="#000028"/>
<path d="M689.594 149.595L677.864 204.901C677.864 205.245 677.525 205.245 677.525 204.901L665.796 149.595H569.574V278.799H634.17V208.328C634.17 208.156 634.51 208.156 634.51 208.328C640.12 231.757 645.561 255.37 651.182 278.799H694.525L711.175 207.812C711.175 207.641 711.514 207.641 711.514 207.812V278.799H779.515V149.595H689.582H689.594Z" fill="#000028"/>
<path d="M784.188 149.595V278.799H854.734V149.595H784.188Z" fill="#000028"/>
<path d="M859.831 149.595V201.967H900.799C900.968 201.967 901.138 202.139 901.138 202.311V278.81H971.684V202.311C971.684 202.139 971.853 201.967 972.023 201.967H1012.99V149.595H859.819H859.831Z" fill="#000028"/>
<path d="M412.907 92.2604V97.9572H493.417L514.716 135.325H370.729V6.10938H490.171L514.716 49.1849H493.87V49.1734H412.907V54.8702H493.406L514.716 92.2604H412.907Z" fill="#000028"/>
<path d="M764.343 135.233H679.341L659.457 82.506H679.172C688.356 82.506 692.937 76.4768 692.937 70.4476C692.937 64.4184 688.356 58.3892 679.172 58.3892H659.785C659.615 58.3892 659.446 58.5612 659.446 58.7331V135.233H595.494V92.2261H620.039L603.016 62.3552L595.494 49.1277H620.039L603.016 19.2682L595.494 6.0292H711.815C741.563 6.0292 756.346 24.4607 756.346 43.4194C756.346 62.3781 740.194 83.3886 707.901 83.3886H695.312V84.0764H737.31L764.331 135.244L764.343 135.233Z" fill="#000028"/>
<path d="M584.896 92.1L560.328 92.1459V135.244H549.787L525.242 92.1688L549.809 92.1573L525.265 49.0933H549.775L525.242 6.0292H560.328L584.873 49.0474L560.351 49.0933L584.896 92.1Z" fill="#FFD324"/>
</g>
<defs>
<clipPath id="clip0_755_8548">
<rect width="1013" height="285" fill="white"/>
</clipPath>
</defs>
</svg>
