<svg id="Layer_1" data-name="Layer 1" xmlns="http://www.w3.org/2000/svg" xmlns:xlink="http://www.w3.org/1999/xlink" viewBox="0 0 650 650"><defs><style>.cls-1{fill:url(#linear-gradient);}.cls-2{fill:#171642;}</style><linearGradient id="linear-gradient" x1="173.07" y1="325" x2="484.79" y2="325" gradientUnits="userSpaceOnUse"><stop offset="0" stop-color="#0fefaa"/><stop offset="1" stop-color="#11ede2"/></linearGradient></defs><circle class="cls-1" cx="328.93" cy="325" r="155.86"/><path class="cls-2" d="M146.56,262.15v-9.63l27.24-28.38-2.72-3a18.72,18.72,0,0,1-2.41,1.92,13.85,13.85,0,0,1-2.45,1.32,13.44,13.44,0,0,1-2.85.79,22.54,22.54,0,0,1-3.59.26H146.56v-9.72h40v9.63l-27.24,28.37,2.63,3a18,18,0,0,1,5-3.28,17.7,17.7,0,0,1,6.57-1h13.75v9.72Z"/><path class="cls-2" d="M191.75,239a28.76,28.76,0,0,1,1.71-10.11,22.61,22.61,0,0,1,4.86-7.89A21.43,21.43,0,0,1,206,216a27.11,27.11,0,0,1,10.12-1.8,26.52,26.52,0,0,1,9.72,1.71,21,21,0,0,1,7.49,4.9,22,22,0,0,1,4.81,7.8,29.56,29.56,0,0,1,1.71,10.37v3.77H203.4a11.8,11.8,0,0,0,3.89,8.41,13.68,13.68,0,0,0,9.42,3.15,16.79,16.79,0,0,0,8.54-2.14A14.86,14.86,0,0,0,231,246.3l6.75,7.36a18,18,0,0,1-3.77,4.25,23.71,23.71,0,0,1-5.08,3.19,26.23,26.23,0,0,1-6,2,32.12,32.12,0,0,1-6.52.66,27.84,27.84,0,0,1-9.94-1.71,22.43,22.43,0,0,1-7.8-4.9,21.76,21.76,0,0,1-5.08-7.8A28.19,28.19,0,0,1,191.75,239Zm36.61-4.38a12,12,0,0,0-3.59-8.23q-3.24-3.06-8.85-3.06a12.66,12.66,0,0,0-8.63,2.93,11.89,11.89,0,0,0-3.81,8.36Z"/><path class="cls-2" d="M247.27,262.15V215.74h10.34v.52a19.63,19.63,0,0,1-.79,3.5c-.35,1.06-.76,2.22-1.23,3.51l3.86,1.22a17.84,17.84,0,0,1,4.46-7.31,9.14,9.14,0,0,1,6.22-2.32,14.27,14.27,0,0,1,2.32.18,5.1,5.1,0,0,1,1.71.52l.79,10.51a10.09,10.09,0,0,0-2.72-.61,29.37,29.37,0,0,0-3.15-.18,10.35,10.35,0,0,0-3.11.48,10.74,10.74,0,0,0-2.89,1.45,11.39,11.39,0,0,0-2.45,2.41A9.77,9.77,0,0,0,259,233v29.16Z"/><path class="cls-2" d="M278.28,238.86a27.43,27.43,0,0,1,1.79-10.08A22.16,22.16,0,0,1,292.86,216a28.71,28.71,0,0,1,20,0,22,22,0,0,1,12.83,12.82,29.35,29.35,0,0,1,0,20.24,22.06,22.06,0,0,1-12.83,12.83,28.86,28.86,0,0,1-20,0A22.22,22.22,0,0,1,280.07,249,27.64,27.64,0,0,1,278.28,238.86Zm37.39,0q0-6.84-3.37-10.82t-9.41-4q-6,0-9.46,4T290,238.86q0,6.91,3.42,10.9t9.46,4q6,0,9.41-4T315.67,238.86Z"/><path class="cls-2" d="M146.65,325a27.18,27.18,0,0,1,1.79-10.07,22.22,22.22,0,0,1,12.79-12.83,28.71,28.71,0,0,1,20,0,22.14,22.14,0,0,1,12.83,12.83,29.32,29.32,0,0,1,0,20.23A22.06,22.06,0,0,1,181.24,348a28.71,28.71,0,0,1-20,0,22.14,22.14,0,0,1-12.79-12.83A27.4,27.4,0,0,1,146.65,325ZM184,325q0-6.83-3.37-10.81t-9.41-4q-6,0-9.46,4T158.38,325q0,6.92,3.42,10.9t9.46,4q6,0,9.41-4T184,325Z"/><path class="cls-2" d="M203.75,301.88h10.51v.44a30.7,30.7,0,0,1-.57,3.41,41.33,41.33,0,0,1-1.18,4l3.59,1.49a18.94,18.94,0,0,1,6.83-8.19,17.73,17.73,0,0,1,9.81-2.76q7.78,0,12.48,5.26t4.68,15.76v27H238.25V323.86q0-6.3-2.36-9.72c-1.58-2.28-4.12-3.41-7.62-3.41a13.4,13.4,0,0,0-7.53,2.19,15.21,15.21,0,0,0-5.26,6V348.3H203.75Z"/><path class="cls-2" d="M257.52,325.18a28.85,28.85,0,0,1,1.71-10.12,22.66,22.66,0,0,1,4.86-7.88,21.45,21.45,0,0,1,7.66-5.08,27.11,27.11,0,0,1,10.12-1.8,26.52,26.52,0,0,1,9.72,1.71,21,21,0,0,1,7.49,4.91,21.83,21.83,0,0,1,4.81,7.79,29.62,29.62,0,0,1,1.71,10.38v3.76H269.17a11.77,11.77,0,0,0,3.9,8.41,13.64,13.64,0,0,0,9.41,3.16,16.8,16.8,0,0,0,8.54-2.15,14.93,14.93,0,0,0,5.74-5.82l6.74,7.35a17.59,17.59,0,0,1-3.77,4.25,23.5,23.5,0,0,1-5.08,3.2,27,27,0,0,1-6,2,32.29,32.29,0,0,1-6.53.65,28.06,28.06,0,0,1-9.94-1.7,22.41,22.41,0,0,1-7.79-4.91,21.67,21.67,0,0,1-5.08-7.79A28.06,28.06,0,0,1,257.52,325.18Zm36.61-4.38a12,12,0,0,0-3.59-8.24q-3.24-3.06-8.85-3.06a12.67,12.67,0,0,0-8.62,2.93,11.84,11.84,0,0,0-3.81,8.37Z"/><path class="cls-2" d="M146.65,434.44V370.51h11.73v12.61a27.31,27.31,0,0,1-.31,4.38,22.42,22.42,0,0,1-.78,3.41c-.32,1-.65,1.89-1,2.68s-.63,1.56-.92,2.32L159,397.4a18.9,18.9,0,0,1,6.84-8.19,17.72,17.72,0,0,1,9.8-2.76q7.8,0,12.48,5.25t4.69,15.77v27H181.15V410q0-6.31-2.36-9.73t-7.62-3.41a13.38,13.38,0,0,0-7.53,2.19,15.14,15.14,0,0,0-5.26,6v29.34Z"/><path class="cls-2" d="M248.24,434.44H237.11V434a26.22,26.22,0,0,1,.75-4,33.69,33.69,0,0,1,1.18-3.46l-3.68-1.23a16.14,16.14,0,0,1-6.39,7.89,18.51,18.51,0,0,1-10.16,2.8q-7.71,0-12.22-4.86t-4.51-14.41V388h11.65v26.54c0,3.62.89,6.37,2.67,8.23s4.34,2.81,7.67,2.81a13.66,13.66,0,0,0,7.35-2,13.35,13.35,0,0,0,5.08-6V388h11.74Z"/><path class="cls-2" d="M258.22,388h10.51v.44a31.26,31.26,0,0,1-.57,3.42,38.7,38.7,0,0,1-1.18,4l3.59,1.49a18.89,18.89,0,0,1,6.83-8.19,17.73,17.73,0,0,1,9.81-2.76q7.8,0,12.48,5.25t4.69,15.77v27H292.73V410q0-6.31-2.37-9.73t-7.62-3.41a13.4,13.4,0,0,0-7.53,2.19,15.11,15.11,0,0,0-5.25,6v29.34H258.22Z"/><path class="cls-2" d="M332.75,435.93a19.62,19.62,0,0,1-8.41-1.8,18.39,18.39,0,0,1-6.56-5.07,24.21,24.21,0,0,1-4.25-7.8,33.7,33.7,0,0,1,0-20.27,23.08,23.08,0,0,1,4.38-7.76,19.39,19.39,0,0,1,6.66-4.94,20,20,0,0,1,8.4-1.75,17.76,17.76,0,0,1,9.51,2.45,16.37,16.37,0,0,1,6.17,6.92l3.59-2.28a23.92,23.92,0,0,1-2.76-6.61,33.24,33.24,0,0,1-.74-7.4v-9.11h11.65v63.93h-9.81V434c.23-.87.54-1.82.92-2.84s.8-2.15,1.27-3.37L349.22,426a15,15,0,0,1-6.57,7.49A20,20,0,0,1,332.75,435.93Zm3.85-9.81a14,14,0,0,0,7.62-2.1,10.65,10.65,0,0,0,4.56-6V404.49a11.57,11.57,0,0,0-4.38-5.91,13,13,0,0,0-7.71-2.24,12.22,12.22,0,0,0-9.15,3.73q-3.63,3.72-3.63,11.16,0,7.09,3.45,11A11.75,11.75,0,0,0,336.6,426.12Z"/><path class="cls-2" d="M370.5,434.44V388h10.33v.53a19,19,0,0,1-.79,3.5c-.35,1.05-.76,2.22-1.22,3.51l3.85,1.22a17.88,17.88,0,0,1,4.47-7.31,9.06,9.06,0,0,1,6.22-2.32,15.62,15.62,0,0,1,2.32.17,5.25,5.25,0,0,1,1.7.53l.79,10.51a9.64,9.64,0,0,0-2.71-.61,29.41,29.41,0,0,0-3.16-.18,10.28,10.28,0,0,0-3.1.48,10.11,10.11,0,0,0-2.9,1.45,11.17,11.17,0,0,0-2.45,2.41,9.68,9.68,0,0,0-1.62,3.37v29.16Z"/><path class="cls-2" d="M401.5,411.32a28.85,28.85,0,0,1,1.71-10.12,22.66,22.66,0,0,1,4.86-7.88,21.45,21.45,0,0,1,7.66-5.08,27.31,27.31,0,0,1,10.12-1.79,26.52,26.52,0,0,1,9.72,1.71,21,21,0,0,1,7.49,4.9,21.91,21.91,0,0,1,4.81,7.79,29.66,29.66,0,0,1,1.71,10.38V415H413.15a11.8,11.8,0,0,0,3.9,8.41q3.54,3.15,9.41,3.15a16.8,16.8,0,0,0,8.54-2.15,14.93,14.93,0,0,0,5.74-5.82l6.74,7.36a17.74,17.74,0,0,1-3.77,4.24,23.36,23.36,0,0,1-5.08,3.2,26.56,26.56,0,0,1-6,2,32.12,32.12,0,0,1-6.52.66,27.84,27.84,0,0,1-9.94-1.71,22.43,22.43,0,0,1-7.8-4.9,21.82,21.82,0,0,1-5.07-7.8A28,28,0,0,1,401.5,411.32Zm36.61-4.38a12,12,0,0,0-3.59-8.23c-2.16-2-5.11-3.07-8.85-3.07a12.62,12.62,0,0,0-8.62,2.94,11.79,11.79,0,0,0-3.81,8.36Z"/><path class="cls-2" d="M475.77,435.93a19.62,19.62,0,0,1-8.41-1.8,18.51,18.51,0,0,1-6.57-5.07,24.4,24.4,0,0,1-4.25-7.8,33.81,33.81,0,0,1,0-20.27,23.08,23.08,0,0,1,4.38-7.76,19.26,19.26,0,0,1,6.65-4.94,20,20,0,0,1,8.41-1.75,17.72,17.72,0,0,1,9.5,2.45,16.32,16.32,0,0,1,6.18,6.92l3.59-2.28a23.33,23.33,0,0,1-2.76-6.61,32.62,32.62,0,0,1-.75-7.4v-9.11h11.65v63.93h-9.81V434c.24-.87.54-1.82.92-2.84s.8-2.15,1.27-3.37L492.23,426a15,15,0,0,1-6.57,7.49A19.93,19.93,0,0,1,475.77,435.93Zm3.85-9.81a14,14,0,0,0,7.62-2.1,10.59,10.59,0,0,0,4.55-6V404.49a11.46,11.46,0,0,0-4.38-5.91,13,13,0,0,0-7.7-2.24,12.22,12.22,0,0,0-9.15,3.73q-3.65,3.72-3.64,11.16,0,7.09,3.46,11A11.75,11.75,0,0,0,479.62,426.12Z"/></svg>